<svg width="18" height="18" viewBox="0 0 18 18" fill="none" xmlns="http://www.w3.org/2000/svg">
  <path d="M16.5335 8.99992C16.5335 9.73326 15.5335 10.3333 15.3335 11.0666C15.1335 11.7999 15.5335 12.8666 15.1335 13.3999C14.6668 13.9999 13.5335 13.9333 12.9335 14.3333C12.3335 14.7333 12.0668 15.8666 11.3335 16.1333C10.6668 16.3333 9.80013 15.5999 9.00013 15.5999C8.2668 15.5999 7.40013 16.3333 6.6668 16.1333C5.93346 15.9333 5.6668 14.7999 5.0668 14.3333C4.4668 13.8666 3.33346 13.9999 2.8668 13.3999C2.4668 12.7999 2.8668 11.7333 2.6668 11.0666C2.4668 10.3999 1.4668 9.79992 1.4668 8.99992C1.4668 8.26659 2.4668 7.66659 2.6668 6.93326C2.8668 6.19992 2.4668 5.13326 2.8668 4.59992C3.40013 3.99992 4.53346 4.06659 5.13346 3.66659C5.73346 3.26659 6.00013 2.13326 6.73346 1.86659C7.40013 1.66659 8.2668 2.39992 9.0668 2.39992C9.80013 2.39992 10.6668 1.66659 11.4001 1.86659C12.1335 2.06659 12.4001 3.19992 13.0001 3.66659C13.6001 4.13326 14.7335 3.99992 15.2001 4.59992C15.6001 5.19992 15.2001 6.26659 15.4001 6.93326C15.5335 7.66659 16.5335 8.26659 16.5335 8.99992Z" stroke="#00B45A" stroke-width="1.5" stroke-miterlimit="10" stroke-linecap="round" stroke-linejoin="round"/>
  <path d="M6.26685 9.06686L8.06685 10.8002L11.7335 7.2002" stroke="#00B45A" stroke-width="1.5" stroke-miterlimit="10" stroke-linecap="round" stroke-linejoin="round"/>
  </svg>
  