<svg width="12" height="7" viewBox="0 0 12 7" fill="none" xmlns="http://www.w3.org/2000/svg">
  <path fill-rule="evenodd" clip-rule="evenodd" d="M0.35092 0.355454C0.575682 0.137178 0.880483 0.0145561 1.1983 0.0145561C1.51611 0.0145561 1.82091 0.137178 2.04567 0.355454L5.99251 4.18957L9.93934 0.355454C10.0499 0.24425 10.1822 0.155549 10.3284 0.0945278C10.4746 0.0335067 10.6319 0.00138738 10.791 4.39614e-05C10.9502 -0.00129945 11.108 0.0281597 11.2553 0.0867029C11.4026 0.145246 11.5364 0.231701 11.649 0.341022C11.7615 0.450344 11.8505 0.580343 11.9107 0.723434C11.971 0.866525 12.0013 1.01984 12 1.17444C11.9986 1.32904 11.9655 1.48182 11.9027 1.62387C11.8399 1.76593 11.7486 1.8944 11.6341 2.00181L6.83988 6.6591C6.61512 6.87738 6.31032 7 5.99251 7C5.67469 7 5.36989 6.87738 5.14513 6.6591L0.35092 2.00181C0.126226 1.78346 0 1.48737 0 1.17863C0 0.869894 0.126226 0.573797 0.35092 0.355454Z" fill="#30353B"/>
  </svg>
  