<svg width="15" height="15" viewBox="0 0 15 15" fill="none" xmlns="http://www.w3.org/2000/svg">
  <path d="M8.82583 8.82583C9.17746 8.47419 9.375 7.99728 9.375 7.5C9.375 7.00272 9.17746 6.52581 8.82583 6.17417C8.47419 5.82254 7.99728 5.625 7.5 5.625C7.00272 5.625 6.52581 5.82254 6.17417 6.17417C5.82254 6.52581 5.625 7.00272 5.625 7.5C5.625 7.99728 5.82254 8.47419 6.17417 8.82583C6.52581 9.17746 7.00272 9.375 7.5 9.375C7.99728 9.375 8.47419 9.17746 8.82583 8.82583Z" stroke="#979A9D" stroke-linecap="round" stroke-linejoin="round"/>
  <path d="M1.53613 7.5C2.33238 4.96437 4.70176 3.125 7.49988 3.125C10.2986 3.125 12.6674 4.96437 13.4636 7.5C12.6674 10.0356 10.2986 11.875 7.49988 11.875C4.70176 11.875 2.33238 10.0356 1.53613 7.5Z" stroke="#979A9D" stroke-linecap="round" stroke-linejoin="round"/>
  </svg>
  