<svg width="20" height="20" viewBox="0 0 20 20" fill="none" xmlns="http://www.w3.org/2000/svg">
  <path d="M7.22214 18.3328C8.75549 18.3328 9.99995 17.0884 9.99995 15.5551V12.7773H7.22214C5.68879 12.7773 4.44434 14.0218 4.44434 15.5551C4.44434 17.0884 5.68879 18.3328 7.22214 18.3328Z" fill="#0ACF83"/>
  <path d="M4.44434 10.0004C4.44434 8.4671 5.68879 7.22266 7.22214 7.22266H9.99995V12.7782H7.22214C5.68879 12.7782 4.44434 11.5338 4.44434 10.0004Z" fill="#A259FF"/>
  <path d="M4.44434 4.44477C4.44434 2.91144 5.68879 1.66699 7.22214 1.66699H9.99995V7.22255H7.22214C5.68879 7.22255 4.44434 5.9781 4.44434 4.44477Z" fill="#F24E1E"/>
  <path d="M10 1.66699H12.7778C14.3111 1.66699 15.5556 2.91144 15.5556 4.44477C15.5556 5.9781 14.3111 7.22255 12.7778 7.22255H10V1.66699Z" fill="#FF7262"/>
  <path d="M15.5556 10.0004C15.5556 11.5338 14.3111 12.7782 12.7778 12.7782C11.2444 12.7782 10 11.5338 10 10.0004C10 8.4671 11.2444 7.22266 12.7778 7.22266C14.3111 7.22266 15.5556 8.4671 15.5556 10.0004Z" fill="#1ABCFE"/>
  </svg>
  