<svg width="26" height="26" viewBox="0 0 26 26" fill="none" xmlns="http://www.w3.org/2000/svg">
  <path d="M24.7871 23.7761L18.9548 17.9437C20.5193 16.145 21.4665 13.7982 21.4665 11.2333C21.4665 5.58714 16.8741 1 11.2333 1C5.58714 1 1 5.59246 1 11.2333C1 16.8741 5.59246 21.4665 11.2333 21.4665C13.7982 21.4665 16.145 20.5193 17.9437 18.9548L23.7761 24.7871C23.9144 24.9255 24.1007 25 24.2816 25C24.4625 25 24.6488 24.9308 24.7871 24.7871C25.0639 24.5104 25.0639 24.0528 24.7871 23.7761ZM2.43149 11.2333C2.43149 6.38004 6.38004 2.43681 11.2279 2.43681C16.0812 2.43681 20.0244 6.38537 20.0244 11.2333C20.0244 16.0812 16.0812 20.035 11.2279 20.035C6.38004 20.035 2.43149 16.0865 2.43149 11.2333Z" fill="#979A9D" stroke="white" stroke-width="2"/>
  </svg>
  