<svg width="10" height="12" viewBox="0 0 10 12" fill="none" xmlns="http://www.w3.org/2000/svg">
  <path fill-rule="evenodd" clip-rule="evenodd" d="M7.4 3.14286C7.4 4.32643 6.3256 5.28571 5 5.28571C3.6744 5.28571 2.6 4.32643 2.6 3.14286C2.6 1.95929 3.6744 1 5 1C6.3256 1 7.4 1.95929 7.4 3.14286Z" stroke="#979A9D" stroke-linecap="square"/>
  <path fill-rule="evenodd" clip-rule="evenodd" d="M9 11C5.87581 11 4.12419 11 1 11C1 10.4925 1 10.0097 1 9.57246C1 8.38822 2.07452 7.42857 3.4 7.42857H6.6C7.92548 7.42857 9 8.38822 9 9.57246C9 10.0097 9 10.4925 9 11Z" stroke="#979A9D" stroke-linecap="square"/>
  </svg>
  