<svg width="31" height="40" viewBox="0 0 31 40" fill="none" xmlns="http://www.w3.org/2000/svg">
  <path d="M8.70605 14.35H9.52445C10.0924 14.35 10.5264 14.3215 10.8252 14.2619C11.0459 14.2136 11.2629 14.1156 11.4762 13.9681C11.6895 13.8193 11.8643 13.6159 12.0032 13.3555C12.1421 13.0951 12.2103 12.7739 12.2103 12.3945C12.2103 11.8997 12.09 11.4955 11.8495 11.183C11.6089 10.8705 11.3113 10.6684 10.9554 10.5754C10.7235 10.5134 10.2263 10.4824 9.46369 10.4824H7.45117V16.6961H8.70605V14.35ZM8.70605 11.5315H9.31241C9.76501 11.5315 10.0651 11.5463 10.2151 11.5736C10.4185 11.6096 10.5871 11.7026 10.7198 11.8501C10.8525 11.9965 10.9195 12.1837 10.9195 12.4094C10.9195 12.5917 10.8723 12.7529 10.7769 12.8917C10.6826 13.0306 10.5512 13.1323 10.385 13.1968C10.2189 13.2625 9.88777 13.2947 9.39301 13.2947H8.70605V11.5315Z" fill="url(#paint0_linear_537_7715)"/>
  <path d="M16.7077 16.5639C17.0773 16.4449 17.3724 16.2799 17.5894 16.0679C17.8771 15.7877 18.099 15.4219 18.254 14.9705C18.3817 14.5997 18.445 14.1595 18.445 13.6487C18.445 13.0659 18.3768 12.5773 18.2416 12.1793C18.1065 11.7812 17.9068 11.4464 17.6477 11.1724C17.3873 10.8971 17.0748 10.7074 16.7102 10.5995C16.4387 10.5214 16.0443 10.4805 15.5273 10.4805H13.2345V16.6941H15.5955C16.0605 16.6941 16.4312 16.6507 16.7077 16.5639ZM14.4919 15.6488V11.532H15.0561C15.5682 11.532 15.9104 11.5518 16.0865 11.5915C16.3209 11.6423 16.5143 11.7391 16.6668 11.8841C16.8206 12.0267 16.9384 12.2276 17.0239 12.4843C17.1083 12.7422 17.1517 13.1105 17.1517 13.5916C17.1517 14.0727 17.1095 14.4509 17.0239 14.7299C16.9384 15.0089 16.8293 15.2086 16.6941 15.3289C16.5602 15.4504 16.3915 15.5359 16.1882 15.5868C16.0332 15.6265 15.7802 15.6475 15.4293 15.6475H14.4919V15.6488Z" fill="url(#paint1_linear_537_7715)"/>
  <path d="M20.7725 14.0539H23.3665V13.0036H20.7725V11.5317H23.7782V10.4814H19.5176V16.6938H20.7725V14.0539Z" fill="url(#paint2_linear_537_7715)"/>
  <path d="M24.7914 30.4307H6.20874V31.6707H24.7914V30.4307Z" fill="#30353B"/>
  <path d="M24.7914 26.04H6.20874V27.28H24.7914V26.04Z" fill="#30353B"/>
  <path d="M2.48 39.68H28.52C29.884 39.68 31 38.564 31 37.2V2.48C31 1.116 29.884 0 28.52 0H8.67256L5.1522 3.87624H0V37.2C0 38.564 1.116 39.68 2.48 39.68ZM1.24 5.11624H5.1522H5.70152L6.07104 4.70952L9.22188 1.24H28.52C29.2032 1.24 29.76 1.79676 29.76 2.48V37.2C29.76 37.8832 29.2032 38.44 28.52 38.44H2.48C1.79676 38.44 1.24 37.8832 1.24 37.2V5.11624Z" fill="#30353B"/>
  <defs>
  <linearGradient id="paint0_linear_537_7715" x1="7.45117" y1="10.4824" x2="13.4748" y2="12.6467" gradientUnits="userSpaceOnUse">
  <stop stop-color="#FF4A1A"/>
  <stop offset="1" stop-color="#FF7428"/>
  </linearGradient>
  <linearGradient id="paint1_linear_537_7715" x1="13.2345" y1="10.4805" x2="19.683" y2="13.0171" gradientUnits="userSpaceOnUse">
  <stop stop-color="#FF4A1A"/>
  <stop offset="1" stop-color="#FF7428"/>
  </linearGradient>
  <linearGradient id="paint2_linear_537_7715" x1="19.5176" y1="10.4814" x2="25.0354" y2="12.2567" gradientUnits="userSpaceOnUse">
  <stop stop-color="#FF4A1A"/>
  <stop offset="1" stop-color="#FF7428"/>
  </linearGradient>
  </defs>
  </svg>
  