<svg width="160" height="44" viewBox="0 0 160 44" fill="none" xmlns="http://www.w3.org/2000/svg">
  <path d="M8.98303 35.0551V17.5278L17.7966 8.84766V26.375H17.8813H26.7796L17.9661 35.0551H8.98303Z" fill="#2F2A85"/>
  <path d="M26.9491 17.5278H17.9661L26.9491 8.68066H35.7627V26.3749L26.9491 35.0551V17.5278Z" fill="#EA5616"/>
  <path d="M61.3559 13.1875H44.7457V30.7148H49.4915V17.1103H56.6101V30.7148H61.3559V13.1875Z" fill="#2F2A85"/>
  <path d="M79.661 15.9414L76.8644 18.6957C76.4406 18.1671 75.0847 17.0598 73.0508 16.8595C70.5084 16.6091 67.8813 18.6957 67.8813 21.9508C67.8813 25.3728 70.5932 27.042 73.0508 27.042C75.0169 27.042 76.6949 25.484 77.2881 24.705L80.1695 27.5428C78.3898 29.7963 75.1695 31.4929 72.7118 31.2152C67.5423 30.6309 66.9337 29.5459 65.0847 27.5428C63.5797 25.9123 63.3051 23.2862 63.3051 21.7838C63.3051 18.9461 64.3503 17.0821 65.0847 16.1918C66.0452 14.9398 68.9152 12.4693 72.7118 12.6029C76.5084 12.7364 78.9265 14.8842 79.661 15.9414Z" fill="#2F2A85"/>
  <path d="M103.729 10.35L105.254 8.84766V33.5528L103.729 35.0551V10.35Z" fill="#2F2A85"/>
  <path d="M131.356 26.8761V17.1943H133.559V21.0337H137.288V17.1943H139.492V26.8761H137.288V22.8698H133.559V26.8761H131.356Z" fill="#2F2A85"/>
  <path d="M141.525 26.8761V17.1943H143.729V21.3675H143.898L147.966 17.1943H151.017L146.102 21.6179L151.017 26.8761H147.966L143.898 22.3691H143.729V26.8761H141.525Z" fill="#2F2A85"/>
  <path fill-rule="evenodd" clip-rule="evenodd" d="M124.237 17.1943L120.17 26.8761H122.373L123.22 24.873H127.119L127.966 26.8761H130.339L126.271 17.1943H124.237ZM123.898 22.8701H126.441L125.254 20.0324L123.898 22.8701Z" fill="#2F2A85"/>
  <path fill-rule="evenodd" clip-rule="evenodd" d="M112.034 17.1943V26.8761H117.288C118.079 26.8761 119.695 26.2751 119.83 23.8714C119.966 21.4677 118.192 20.7554 117.288 20.6998H114.237V19.1975H118.983V17.1943H112.034ZM114.237 22.702H116.78C117.09 22.7298 117.695 23.0024 117.627 23.8705C117.559 24.7385 117.034 25.0111 116.78 25.0389H114.237V22.702Z" fill="#2F2A85"/>
  <path fill-rule="evenodd" clip-rule="evenodd" d="M81.6949 13.1055V30.7162H92.0339C93.6158 30.5771 96.8136 29.2807 96.9492 25.2077C97.0848 21.1346 93.7288 19.8382 92.0339 19.6991H86.4407V17.0282H95.4238V13.1055H81.6949ZM86.4408 23.4537V27.0426H90.678C91.356 27.0426 92.2882 26.2914 92.2882 25.2064C92.2882 24.1214 91.356 23.4537 90.678 23.4537H86.4408Z" fill="#2F2A85"/>
  </svg>
  