<svg width="348" height="172" viewBox="0 0 348 172" fill="none" xmlns="http://www.w3.org/2000/svg">
  <g clip-path="url(#clip0_543_7676)">
  <path d="M252.159 10.2864C192.828 7.93959 82.4052 19.4757 29.2584 64.9908C-23.8884 110.506 -6.50468 164.659 96.8251 161.899C200.155 159.138 333.563 120.791 346.194 69.7586C360.196 13.1315 289.349 11.7673 252.159 10.2864Z" fill="#D6EAFF"/>
  <path d="M31.4443 101.183C40.7176 104.728 50.9904 104.598 60.1714 100.82C69.3525 97.0413 76.7516 89.8988 80.8626 80.8459C84.9735 71.793 85.4872 61.5104 82.299 52.0914C79.1109 42.6723 72.4606 34.8249 63.702 30.1467C62.6437 29.5872 61.5628 29.0728 60.4595 28.6035" stroke="#1D1D1B" stroke-width="2.84" stroke-linecap="round" stroke-linejoin="round"/>
  <path d="M32.742 97.6751L30.4282 90.5918L38.8022 94.4218L32.742 97.6751Z" fill="#1D1D1B"/>
  <path d="M58.8126 32.4736L61.1859 38.2684L53.312 34.7724L58.8126 32.4736Z" fill="#1D1D1B"/>
  <path d="M30.4521 103.41L61.1739 26.5596" stroke="#1D1D1B" stroke-width="2.84" stroke-linecap="round" stroke-linejoin="round"/>
  <path d="M12.4302 64.6608C12.4302 58.1319 14.3621 51.7497 17.9816 46.3212C21.6011 40.8927 26.7457 36.6616 32.7647 34.1632C38.7838 31.6647 45.407 31.011 51.7968 32.2847C58.1866 33.5584 64.056 36.7023 68.6627 41.3189C73.2695 45.9355 76.4068 51.8174 77.6778 58.2208C78.9488 64.6242 78.2965 71.2614 75.8033 77.2933C73.3101 83.3252 69.0881 88.4807 63.6711 92.1079C58.2541 95.7351 51.8854 97.6712 45.3704 97.6712C36.6341 97.6712 28.2557 94.1933 22.0782 88.0026C15.9007 81.812 12.4302 73.4157 12.4302 64.6608Z" fill="#004BFF"/>
  <path d="M24.3403 37.8899L28.5749 39.3733C29.5426 39.715 30.3807 40.3491 30.9735 41.1883C31.5664 42.0274 31.8847 43.0302 31.8848 44.0584V46.6038C31.8848 47.2536 32.1423 47.8767 32.6008 48.3362C33.0593 48.7956 33.6811 49.0537 34.3295 49.0537C34.9779 49.0537 35.5997 49.3118 36.0582 49.7713C36.5167 50.2307 36.7742 50.8539 36.7742 51.5037V55.8109C36.775 56.5689 36.5624 57.3117 36.1608 57.954C35.7593 58.5963 35.185 59.1121 34.5041 59.4421L31.4284 60.9335C29.7576 61.7289 27.3406 64.4334 26.8683 66.2271C26.5231 67.5475 26.0349 68.6611 24.8324 69.2974C23.2925 70.0929 22.6218 69.6474 21.1455 68.7168L18.1729 66.2947C17.6325 65.9531 17.0228 65.7369 16.3883 65.6619C15.7538 65.5869 15.1107 65.655 14.5058 65.8612L13.2358 66.2987C12.8804 66.4196 12.5021 66.457 12.1299 66.4081C11.7578 66.3592 11.4019 66.2252 11.0897 66.0165C10.7774 65.8077 10.5173 65.5299 10.3292 65.2044C10.1412 64.8788 10.0304 64.5144 10.0053 64.1391C9.63621 58.6427 10.4419 46.9816 22.0622 38.2279C22.3843 37.9854 22.7612 37.8265 23.1593 37.7655C23.5575 37.7044 23.9646 37.743 24.3442 37.8779" fill="#2B2C84"/>
  <path d="M25.1418 71.0752C25.5832 71.0759 26.0147 71.2058 26.3834 71.4488C26.7521 71.6919 27.042 72.0375 27.2175 72.4433L28.4636 75.3347C28.7508 75.9997 29.1686 76.5998 29.6923 77.0993C30.216 77.5988 30.8347 77.9874 31.5116 78.242L40.7389 81.7101C41.0478 81.8268 41.3275 82.0096 41.5585 82.246C41.7896 82.4823 41.9663 82.7663 42.0763 83.0782L43.3344 86.6577C43.5151 87.183 43.4973 87.7564 43.2845 88.2695C43.0716 88.7825 42.6785 89.1996 42.1795 89.4417L40.0126 90.4877C39.7139 90.6312 39.4504 90.8388 39.2407 91.0957C39.031 91.3527 38.8803 91.6527 38.7993 91.9746C38.7182 92.2964 38.7088 92.6322 38.7717 92.9581C38.8346 93.284 38.9683 93.592 39.1633 93.8603L45.4735 102.61L26.0269 100.407L20.4111 91.0763L21.0104 83.3964C21.1971 81.0145 21.566 78.6504 22.1137 76.325L22.9392 72.841C23.057 72.3442 23.3384 71.9017 23.7381 71.5849C24.1377 71.2681 24.6323 71.0956 25.1418 71.0951" fill="#2B2C84"/>
  <path d="M81.5177 78.7993L88.582 44.9418L58.7135 30.8428L56.753 31.1808C55.7219 31.3586 54.7798 31.8771 54.0768 32.6535C53.3737 33.43 52.9501 34.4199 52.8735 35.4655C52.7968 36.5112 53.0714 37.5525 53.6536 38.4236C54.2359 39.2948 55.0922 39.9456 56.0863 40.2726C57.351 40.6801 58.7031 40.7324 59.9954 40.4237C60.4349 40.3232 60.8927 40.3362 61.3259 40.4614C61.759 40.5866 62.1533 40.82 62.4719 41.1396L63.353 42.0226C63.6003 42.2704 63.7965 42.5646 63.9303 42.8884C64.0642 43.2122 64.1331 43.5592 64.1331 43.9097C64.1331 44.2602 64.0642 44.6072 63.9303 44.931C63.7965 45.2548 63.6003 45.5491 63.353 45.7969L61.3686 47.7854L57.1142 52.1603C56.6384 52.6519 56.2762 53.2423 56.0533 53.8897C55.8304 54.5372 55.7522 55.2258 55.8243 55.9068L56.1736 59.1164C56.2577 59.8962 56.6263 60.6174 57.2087 61.1415C57.791 61.6656 58.546 61.9557 59.3287 61.956H60.8805C61.1358 61.956 61.3887 61.9056 61.6246 61.8077C61.8606 61.7098 62.075 61.5662 62.2555 61.3852C62.4361 61.2043 62.5794 60.9895 62.6771 60.753C62.7748 60.5166 62.8251 60.2632 62.8251 60.0072C62.8252 59.7093 62.8933 59.4154 63.0245 59.148C63.1556 58.8806 63.3461 58.6469 63.5814 58.4648C63.8168 58.2828 64.0906 58.1572 64.3819 58.0978C64.6733 58.0384 64.9743 58.0467 65.2619 58.1221L66.0001 58.313C66.4183 58.4207 66.7888 58.6648 67.0532 59.0069C67.3176 59.3489 67.461 59.7694 67.4606 60.2021V63.2605C67.4606 63.5165 67.5109 63.7699 67.6086 64.0063C67.7063 64.2428 67.8496 64.4576 68.0302 64.6386C68.2107 64.8195 68.4251 64.9631 68.661 65.061C68.897 65.1589 69.1499 65.2094 69.4052 65.2094H72.2468C72.4933 65.2135 72.7358 65.2719 72.9572 65.3804C74.6558 66.1758 74.5249 68.6774 72.7985 69.4251L71.5602 69.966C70.781 70.3028 70.1026 70.8371 69.5919 71.5163C69.0811 72.1955 68.7555 72.9963 68.6472 73.8398L68.4726 75.2039C68.3713 75.9973 68.4651 76.8034 68.746 77.5521C69.0268 78.3008 69.4861 78.9693 70.0839 79.4993C70.4356 79.8119 70.6973 80.2133 70.8418 80.6616C70.9863 81.1099 71.0082 81.5889 70.9054 82.0486L69.8497 86.857C69.7177 87.4541 69.7968 88.0787 70.0737 88.6237C70.3505 89.1688 70.8078 89.6005 71.3673 89.8448C71.9267 90.0892 72.5536 90.1311 73.1405 89.9633C73.7274 89.7955 74.2378 89.4285 74.5844 88.9251L81.5177 78.7993Z" fill="#2B2C84"/>
  <path d="M58.0939 47.4514L57.8518 45.6219C57.8151 45.336 57.6843 45.0706 57.4802 44.8674C57.2761 44.6643 57.0102 44.5352 56.7247 44.5004L56.1532 44.4288C56.0145 44.4067 55.8725 44.4219 55.7416 44.4727C55.6108 44.5236 55.4957 44.6083 55.4081 44.7183C55.3206 44.8283 55.2637 44.9595 55.2433 45.0987C55.2229 45.2379 55.2397 45.38 55.292 45.5106L55.3197 45.5901C55.6455 46.4832 55.8238 47.4236 55.8476 48.3741C55.845 48.5264 55.8862 48.6763 55.9661 48.8058C56.046 48.9353 56.1614 49.0392 56.2985 49.1049C56.4356 49.1707 56.5887 49.1956 56.7395 49.1768C56.8903 49.1579 57.0325 49.0961 57.1493 48.9986L57.5898 48.6605C57.7709 48.5234 57.9128 48.341 58.0012 48.1315C58.0897 47.9221 58.1217 47.6931 58.0939 47.4673" fill="#2B2C84"/>
  <path d="M34.6591 35.5075L34.2622 38.7449C34.1838 39.2828 34.3216 39.8299 34.6452 40.266C34.9689 40.7022 35.452 40.9919 35.9886 41.0716C36.0679 41.0756 36.1474 41.0756 36.2267 41.0716C36.5688 41.0732 36.9063 40.992 37.2103 40.8348C37.5143 40.6776 37.776 40.4491 37.9729 40.1687L40.878 35.8615L43.93 31.0889C44.1663 30.7186 44.2828 30.2841 44.2636 29.845C44.2444 29.4058 44.0905 28.9833 43.8228 28.635L43.3664 28.0424C43.123 27.7231 42.7946 27.479 42.419 27.3383C42.0435 27.1976 41.6359 27.166 41.2431 27.247L34.4606 28.6628C33.969 28.7641 33.5291 29.0365 33.2189 29.4318C32.9087 29.8272 32.7482 30.3198 32.766 30.8224V30.9775C32.7643 31.4858 32.8715 31.9884 33.0804 32.4515C33.2892 32.9147 33.5948 33.3275 33.9764 33.6621C34.2327 33.8898 34.4287 34.1774 34.5472 34.4994C34.6656 34.8214 34.7026 35.1677 34.6551 35.5075" fill="#2B2C84"/>
  <path d="M62.0429 36.1924C67.6795 41.886 71.0549 49.4413 71.5385 57.4469C72.0221 65.4524 69.5808 73.3606 64.6707 79.694C59.7606 86.0274 52.7175 90.3528 44.8573 91.8621C36.9971 93.3713 28.8575 91.9613 21.959 87.8954C25.2574 91.2271 29.2267 93.8157 33.6023 95.4885C37.9779 97.1613 42.6592 97.8799 47.3339 97.5964C52.0085 97.3128 56.5691 96.0336 60.7114 93.844C64.8537 91.6545 68.4825 88.6049 71.3557 84.8988C74.229 81.1927 76.2806 76.9152 77.3738 72.3517C78.467 67.7882 78.5765 63.0435 77.6952 58.4342C76.8139 53.8249 74.962 49.4569 72.2629 45.6215C69.5638 41.7862 66.0797 38.5716 62.0429 36.1924Z" fill="#2B2C84"/>
  <path d="M51.3831 111.953H45.5332V103.9L51.3831 103.172V111.953Z" fill="#161814"/>
  <path d="M53.181 111.599L44.0133 111.233C44.0133 121.972 37.5403 133.74 26.4279 133.74H24.3999V136.981H72.8816V132.837C61.551 132.837 53.181 122.35 53.181 111.599Z" fill="#161814"/>
  <path d="M334.157 142.049H19.0024V148.798H334.157V142.049Z" fill="#161814"/>
  <g style="mix-blend-mode:lighten">
  <g style="mix-blend-mode:lighten">
  <g style="mix-blend-mode:lighten">
  <path d="M126.074 16.9907L117.256 17.5952C125.455 19.0906 135.167 22.9405 136.774 30.4056C138.381 37.8707 130.174 42.6513 126.09 33.0464C121.264 21.7274 108.564 19.9218 105.874 18.3707L95.8208 19.0588C110.045 19.0588 121.617 27.8881 121.617 38.7377C121.617 48.0443 112.954 56.1537 101.02 58.015C100.932 58.015 100.806 58.0428 100.651 58.0548H100.623C94.9993 58.4525 79.1125 57.1241 79.1125 57.1241C68.3375 56.2094 61.7018 64.0643 61.174 71.9589C60.6858 79.3127 66.8215 86.8653 78.7474 86.4994L106.362 84.479C112.489 84.479 117.712 88.1022 117.942 92.7714C118.184 97.6792 113.021 101.732 106.64 101.732L97.1662 100.936C92.1458 100.372 88.1731 103.593 88.1334 107.212C88.0937 110.832 92.2133 114.371 96.9241 114.371H97.0352C95.9161 113.683 93.519 112.403 92.1855 110.334C90.3281 107.459 91.8918 105.61 92.6062 105.709C93.8166 105.88 93.3364 107.964 95.3842 110.784C96.428 112.216 98.6267 113.568 100.682 114.363H104.893C101.012 114.363 97.6702 111.269 97.4758 108.314C97.2734 105.152 100.583 102.531 104.683 102.531H120.367C127.078 102.531 133.96 98.0331 134.111 92.9145C134.301 86.6306 128.225 82.0092 120.673 82.4307L104.401 83.5364C102.717 83.6629 101.024 83.5895 99.3569 83.3177C92.0307 82.045 86.0062 77.4076 86.3713 70.5351C86.7682 63.4836 94.3683 58.9735 102.754 59.3116L120.339 59.765C135.817 59.9598 149.478 50.0647 149.763 38.4991C150.057 26.6631 141.524 16.9668 126.078 16.9668L126.074 16.9907ZM120.705 85.3738C122.36 84.304 129.833 86.567 129.487 91.4231C129.178 95.973 122.487 97.8223 123.816 92.489C124.788 88.5834 119.204 86.3443 120.705 85.3738ZM130.924 42.4802C130.781 43.3552 129.579 43.8842 128.245 43.6734C126.912 43.4626 125.947 42.5638 126.094 41.6848C126.241 40.8059 127.439 40.2809 128.773 40.4917C130.106 40.7025 131.071 41.6053 130.924 42.4802Z" fill="#FEFFFF"/>
  </g>
  </g>
  </g>
  <path d="M88.5817 120.074H84.5336C80.8547 120.074 77.8662 123.419 77.8662 127.547C77.8662 136.639 91.6416 139.336 91.6416 139.336" stroke="#EA2504" stroke-width="8" stroke-miterlimit="10"/>
  <path d="M113.616 115.075C108.314 113.624 91.4391 113.413 86.7481 114.332V122.465C86.7453 129.981 87.9831 137.446 90.4112 144.558L93.1615 152.612H107.203L109.933 144.558C112.359 137.446 113.598 129.981 113.6 122.465L113.616 115.075Z" fill="#FD7218"/>
  <path d="M108.644 114.292C108.064 121.216 105.171 136.385 90.6694 145.314L93.1618 152.612H107.203L109.934 144.558C112.36 137.446 113.599 129.982 113.601 122.465V115.076C111.973 114.649 110.307 114.382 108.628 114.28" fill="#FA4616"/>
  <path d="M199.305 87.3862L171.798 82.8682L143.509 88.46C139.443 89.2648 135.702 91.2504 132.754 94.1697C129.806 97.089 127.779 100.813 126.927 104.878L121.018 141.933H223.629L216.414 103.283C215.437 99.24 213.293 95.5752 210.251 92.7459C207.208 89.9166 203.401 88.0483 199.305 87.3743" fill="#161814"/>
  <path d="M199.138 86.3722L171.821 81.707L143.727 87.4978C140.068 88.2776 136.612 89.8137 133.579 92.0079C133.435 92.1125 133.32 92.251 133.242 92.4111C133.165 92.5713 133.128 92.748 133.135 92.9258C133.142 93.1036 133.193 93.2769 133.283 93.4304C133.373 93.5838 133.499 93.7127 133.65 93.8055L172.353 117.621L211.04 93.6266C211.187 93.5363 211.31 93.4122 211.398 93.2646C211.487 93.1171 211.54 92.9503 211.552 92.7784C211.563 92.6064 211.534 92.4341 211.465 92.2758C211.397 92.1176 211.292 91.978 211.159 91.8687C209.215 90.2778 204.873 87.2552 199.138 86.3881" fill="#161814"/>
  <path d="M172.353 109.897C154.808 102.062 138.508 89.041 138.508 89.041C136.721 89.8122 135.023 90.7764 133.444 91.9165C132.825 92.3699 132.789 93.2489 133.639 93.7898C133.639 93.7898 149.748 108.939 172.977 118.42C195.035 107.475 211.029 93.6108 211.029 93.6108C211.181 93.5225 211.311 93.4 211.408 93.2528C211.505 93.1056 211.567 92.9378 211.588 92.7626C211.609 92.5875 211.589 92.4098 211.53 92.2436C211.471 92.0774 211.374 91.9273 211.247 91.8052C209.77 90.6126 208.174 89.5758 206.484 88.7109C206.484 88.7109 195.682 99.8032 172.353 109.897Z" fill="#FEFFFF"/>
  <path d="M209.227 102.611C209.227 102.611 211.79 108.299 212.751 113.986" stroke="#2B2C84" stroke-width="1.98" stroke-miterlimit="10" stroke-linecap="round"/>
  <path d="M203.309 104.026C204.587 107.176 207.417 117.604 207.917 123.952" stroke="#2B2C84" stroke-width="1.98" stroke-miterlimit="10" stroke-linecap="round"/>
  <path d="M145.652 86.989C145.652 86.989 159.265 97.3296 172.357 103.423C189.204 95.7547 199.69 86.468 199.69 86.468C199.507 86.4362 199.329 86.4004 199.142 86.3726L176.211 82.4551L167.984 82.4988L145.652 86.989Z" fill="#FEFFFF"/>
  <path d="M172.988 121.721V131.27" stroke="#2B2C84" stroke-width="1.98" stroke-miterlimit="10" stroke-linecap="round"/>
  <path d="M199.769 86.4154L176.211 81.957L167.984 82.4979L160.475 84.0411C161.003 88.8733 163.281 98.3588 173.016 98.9554C177.334 99.2139 182.652 98.16 182.652 98.16C182.652 98.16 193.336 92.2698 199.781 86.4114" fill="#E2E6E9"/>
  <path d="M137.945 106.19C137.945 106.19 134.853 113.504 133.65 126.474" stroke="#2B2C84" stroke-width="1.98" stroke-miterlimit="10" stroke-linecap="round"/>
  <path d="M145.144 111.679C145.144 111.679 143.489 118.806 143.703 122.695" stroke="#2B2C84" stroke-width="1.98" stroke-miterlimit="10" stroke-linecap="round"/>
  <path d="M183.625 119.155C183.625 119.155 184.144 122.735 184.418 124.353" stroke="#2B2C84" stroke-width="1.98" stroke-miterlimit="10" stroke-linecap="round"/>
  <path d="M158.201 58.8903C156.217 60.2028 153.042 63.0385 152.224 71.4303C151.406 79.8221 155.828 84.5311 157.312 87.9395C158.796 91.3479 162.753 97.5125 172.857 97.5125C181.882 97.5125 186.371 93.9808 189.129 87.681C191.887 81.3811 194.769 65.6594 189.8 60.5249C184.831 55.3904 169.115 51.6121 158.189 58.8903" fill="#FCA92E"/>
  <path d="M151.573 56.2139C149.333 58.7869 148.096 62.0854 148.093 65.5005C148.16 71.1004 150.399 75.0855 152.276 77.0343L153.617 72.5878C153.617 72.5878 153.935 64.1483 157.852 58.5127L151.573 56.2139Z" fill="#161814"/>
  <path d="M192.3 55.6484C192.3 55.6484 195.673 56.7501 196.503 63.7897C196.713 65.5874 196.034 70.8491 195.574 71.9906C194.899 73.6769 192.165 75.928 190.482 77.3757C190.482 77.3757 191.161 66.3112 185.779 59.8762L192.3 55.6484Z" fill="#161814"/>
  <path d="M190.8 73.7643C191.514 71.2627 194.324 69.3894 195.907 70.5388C197.154 71.4297 196.959 76.3972 191.907 79.8056L190.8 73.7643Z" fill="#FCA92E"/>
  <path d="M149.799 71.2387C147.235 71.9149 147.235 77.6022 152.049 79.8055L153.617 72.595C153.207 71.9924 152.615 71.5362 151.929 71.2924C151.243 71.0486 150.497 71.0298 149.799 71.2387Z" fill="#FCA92E"/>
  <path d="M193.673 57.1279C193.673 63.4198 182.009 66.5975 172.294 66.5975C162.578 66.5975 150.998 62.9147 150.998 57.1279C150.998 57.1279 152.946 47.543 161.122 47.543H185.791C190.812 47.543 193.673 57.1279 193.673 57.1279Z" fill="#161814"/>
  <path d="M154.808 62.4416C152.462 60.982 150.986 59.1843 150.986 57.1162" stroke="#2B2C84" stroke-width="1.98" stroke-miterlimit="10" stroke-linecap="round"/>
  <path d="M193.673 57.1279C193.673 59.4625 192.066 61.3676 189.55 62.8431" stroke="#2B2C84" stroke-width="1.98" stroke-miterlimit="10" stroke-linecap="round"/>
  <path d="M141.12 38.9085C156.312 34.3069 161.824 28.7826 171.409 24.0458C171.657 23.9288 171.928 23.8682 172.202 23.8682C172.477 23.8682 172.748 23.9288 172.996 24.0458C182.176 27.5537 195.034 33.416 205.198 38.7613C205.857 39.1073 206.103 39.8988 205.563 40.4079C201.801 43.9356 189.57 54.6381 175.925 58.4562C156.34 54.8529 141.131 40.5988 141.131 40.5988C140.139 39.9942 140.377 39.1392 141.108 38.9204" fill="#161814"/>
  <path d="M175.711 41.4307C175.711 41.4307 187.792 45.2408 203.258 42.1267" stroke="#FACA00" stroke-width="1.98" stroke-linecap="round" stroke-linejoin="round"/>
  <path d="M203.258 67.5479V42.126" stroke="#FACA00" stroke-width="1.98" stroke-linecap="round" stroke-linejoin="round"/>
  <path d="M201.924 68.897C201.924 68.6316 202.001 68.3719 202.148 68.1509C202.295 67.9299 202.504 67.7575 202.748 67.6555C202.993 67.5536 203.262 67.5267 203.522 67.5783C203.782 67.6299 204.02 67.7576 204.207 67.9453C204.395 68.133 204.522 68.3722 204.574 68.6325C204.625 68.8929 204.598 69.1627 204.497 69.4078C204.395 69.6528 204.223 69.8621 204.002 70.0091C203.782 70.1561 203.523 70.2341 203.258 70.2333C203.083 70.2333 202.909 70.1988 202.748 70.1316C202.586 70.0644 202.439 69.966 202.315 69.8419C202.191 69.7178 202.093 69.5705 202.026 69.4084C201.959 69.2463 201.924 69.0725 201.924 68.897Z" fill="#FACA00"/>
  <path d="M171.175 40.5913C171.174 40.3261 171.252 40.0666 171.398 39.8456C171.545 39.6247 171.753 39.4523 171.998 39.3502C172.242 39.2482 172.511 39.2211 172.771 39.2723C173.03 39.3236 173.269 39.4509 173.457 39.6382C173.644 39.8255 173.772 40.0643 173.824 40.3244C173.876 40.5845 173.849 40.8542 173.748 41.0994C173.647 41.3445 173.476 41.5541 173.256 41.7015C173.036 41.849 172.777 41.9277 172.512 41.9277C172.337 41.9282 172.163 41.894 172.001 41.8271C171.838 41.7602 171.691 41.6618 171.567 41.5377C171.443 41.4135 171.344 41.2661 171.277 41.1037C171.209 40.9413 171.175 40.7672 171.175 40.5913Z" fill="#FACA00"/>
  <path d="M203.257 67.4531L200.709 77.3204C200.704 77.3373 200.704 77.3553 200.709 77.3721C200.709 77.3721 201.503 77.9449 203.595 77.8295C206.258 77.6824 206.77 76.7875 206.77 76.7875L203.269 67.4531" fill="#FACA00"/>
  <path d="M176.453 93.2608C176.453 93.2608 179.937 93.6585 181.672 91.0693" stroke="#1D1D1B" stroke-width="1.98" stroke-linecap="round" stroke-linejoin="round"/>
  <path d="M195.046 72.4639C194.039 72.548 193.094 72.9845 192.375 73.6968" stroke="#1D1D1B" stroke-width="1.98" stroke-linecap="round" stroke-linejoin="round"/>
  <path d="M149.759 73.5102C149.759 73.5102 151.724 73.4227 152.442 74.6476" stroke="#1D1D1B" stroke-width="1.98" stroke-linecap="round" stroke-linejoin="round"/>
  <path d="M153.795 81.293C154.986 84.077 156.625 86.1451 157.312 87.9388C157.743 88.9758 158.29 89.9605 158.943 90.874C167.785 89.116 177.651 88.77 188.311 89.5177C188.576 88.9318 188.855 88.3193 189.149 87.6803C190.007 85.6148 190.682 83.4774 191.165 81.293H153.795Z" fill="#FD7218"/>
  <path d="M155.764 68.332H188.673C189.518 68.3314 190.338 68.6225 190.994 69.1563C191.65 69.6901 192.103 70.4341 192.276 71.2632L193.59 77.4795L151.053 77.909L152.129 71.4302C152.269 70.5654 152.712 69.7789 153.378 69.2113C154.044 68.6437 154.89 68.332 155.764 68.332Z" fill="#161814"/>
  <path d="M187.645 87.939H157.161C156.432 87.9392 155.72 87.7243 155.112 87.3211C154.504 86.918 154.029 86.3444 153.744 85.6721L151.268 79.8217C151.028 79.2562 150.933 78.6401 150.989 78.0285C151.045 77.4169 151.252 76.8287 151.59 76.3166C151.929 75.8046 152.388 75.3844 152.928 75.0939C153.468 74.8033 154.072 74.6512 154.685 74.6514H189.927C190.532 74.6515 191.127 74.7998 191.662 75.0832C192.197 75.3666 192.655 75.7766 192.995 76.2775C193.336 76.7784 193.549 77.3552 193.617 77.9576C193.685 78.56 193.605 79.1699 193.383 79.7342L191.082 85.5846C190.809 86.28 190.334 86.8771 189.718 87.2978C189.103 87.7185 188.374 87.9434 187.629 87.943" fill="#2B2C84"/>
  <path d="M178.747 65.8214L173.048 65.8174L165.622 83.1777L164.606 81.8254L156.867 99.9135L162.562 99.9175L169.412 83.9094L170.432 85.2617L178.747 65.8214Z" fill="#004BFF"/>
  <path d="M169.9 63.9805H167.178L160.042 80.2033L159.292 79.2527L151.791 96.2511L154.514 96.2551L161.459 80.5175L162.209 81.468L169.9 63.9805Z" fill="#004BFF"/>
  <path d="M339.376 88.1897L290.001 87.9988L287.965 15.7578L340.698 14.7197L339.376 88.1897Z" fill="#FEFFFF"/>
  <path d="M325.763 32.2275V74.6479H324.64V53.7996H300.03V74.6479H298.907V32.2275H300.03V52.5906H324.64V32.2275H325.763Z" fill="#D6EAFF"/>
  <path d="M227.57 43.7924C227.57 43.7924 221.418 56.6068 226.315 64.8316C230.653 72.1177 236.436 70.1888 239.376 76.0193C242.317 81.8498 240 93.5745 247.123 98.0726C255.537 103.386 268.392 96.8477 266.844 87.2389C264.788 74.512 255.577 75.6813 252.557 70.3041C248.588 63.1453 250.743 55.3659 243.321 48.5332C237.642 43.3032 227.554 43.7924 227.554 43.7924" fill="#2B2C84"/>
  <path d="M227.57 43.7924C227.57 43.7924 221.418 56.6068 226.315 64.8316C230.653 72.1177 236.436 70.1888 239.376 76.0193C242.317 81.8498 240 93.5745 247.123 98.0726C255.537 103.386 268.392 96.8477 266.844 87.2389C264.788 74.512 255.577 75.6813 252.557 70.3041C248.588 63.1453 250.743 55.3659 243.321 48.5332C237.658 43.3032 227.57 43.7924 227.57 43.7924Z" stroke="#2B317F" stroke-width="1.98" stroke-miterlimit="10"/>
  <path d="M233.999 52.1885C232.919 50.6692 231.806 49.1354 230.657 47.5869" stroke="#004BFF" stroke-width="1.98" stroke-miterlimit="10" stroke-linecap="round"/>
  <path d="M263.522 111.11C263.522 111.11 257.541 86.1096 235.475 54.2686" stroke="#004BFF" stroke-width="1.98" stroke-miterlimit="10" stroke-linecap="round"/>
  <path d="M280.985 40.5671C278.603 40.8256 279.036 37.8785 279.036 37.8785C279.036 37.8785 275.667 38.5467 275.155 36.1683C274.797 34.4979 276.036 32.9111 277.139 31.873C274.974 28.9859 272.41 26.4227 269.523 24.2607C269.523 24.2607 257.569 33.4639 258.478 42.4363C259.292 50.5537 263.241 52.6735 262.737 58.6194C262.233 64.5652 253.93 69.9463 257.605 80.6687C261.28 91.3911 273.984 90.4008 278.877 84.3277C281.921 80.5454 283.398 76.1944 277.718 63.738C273.75 55.0479 282.695 51.3531 280.997 40.5671" fill="#004BFF"/>
  <path d="M280.985 40.5671C278.603 40.8256 279.036 37.8785 279.036 37.8785C279.036 37.8785 275.667 38.5467 275.155 36.1683C274.797 34.4979 276.036 32.9111 277.139 31.873C274.974 28.9859 272.41 26.4227 269.523 24.2607C269.523 24.2607 257.569 33.4639 258.478 42.4363C259.292 50.5537 263.241 52.6735 262.737 58.6194C262.233 64.5652 253.93 69.9463 257.605 80.6687C261.28 91.3911 273.984 90.4008 278.877 84.3277C281.921 80.5454 283.398 76.1944 277.718 63.738C273.758 55.0479 282.695 51.3531 280.985 40.5671Z" stroke="#004BFF" stroke-width="1.98" stroke-miterlimit="10" stroke-linecap="round"/>
  <path d="M268.706 32.5371C268.706 32.5371 269.203 101.398 268.706 119.064" stroke="#2B2C84" stroke-width="1.98" stroke-miterlimit="10" stroke-linecap="round"/>
  <path d="M111.096 148.658H240.444L199.649 134.897L172.65 137.975L150.43 134.05L112.179 144.573L111.096 148.658Z" fill="#161814"/>
  <path d="M240.444 148.833L187.097 142.685H186.946C185.045 146.264 179.802 148.833 173.591 148.833C167.38 148.833 162.134 146.26 160.237 142.685L106.889 148.833" stroke="#1D1D1B" stroke-width="1.98" stroke-miterlimit="10" stroke-linecap="round"/>
  <path d="M244.274 107.746V107.782C244.305 108.361 244.539 108.911 244.935 109.335C245.33 109.759 245.862 110.03 246.437 110.1L247.675 110.256C249.128 125.23 250.616 139.46 252.636 148.969H281.25V105.59L246.77 105.133C246.432 105.129 246.096 105.195 245.784 105.326C245.472 105.458 245.19 105.652 244.956 105.897C244.721 106.142 244.54 106.432 244.422 106.75C244.304 107.068 244.252 107.407 244.27 107.746" fill="#FD7218"/>
  <path d="M247.679 110.267H281.254V113.194C272.948 113.806 260.812 113.194 247.882 112.343L247.679 110.267Z" fill="#FA4616"/>
  <path d="M264.256 111.953L281.254 110.267L284.251 148.002C275.944 148.614 269.408 148.773 256.47 147.914C262.328 140.791 262.661 125.435 264.252 111.953" fill="#FA4616"/>
  <path d="M337.078 117.724L263.919 118.861C261.669 118.953 260.415 120.321 260.415 122.329C260.415 124.338 261.641 125.96 263.641 125.96H337.078V117.724Z" fill="#FACA00"/>
  <path d="M336.546 148.002H270.797C264.447 144.82 262.066 131.584 270.797 126.358H336.546V148.002Z" fill="#004BFF"/>
  <path d="M336.546 148.002H270.797C264.447 144.82 262.066 131.584 270.797 126.358H336.546V148.002Z" stroke="#004BFF" stroke-width="1.98" stroke-miterlimit="10" stroke-linecap="round"/>
  <path d="M276.222 101.378C276.222 101.678 276.341 101.965 276.552 102.177C276.763 102.388 277.05 102.507 277.349 102.507H319.981C324.259 106.684 324.259 111.854 319.981 116.428H277.329C277.03 116.428 276.744 116.547 276.532 116.758C276.321 116.97 276.202 117.257 276.202 117.557C276.202 117.857 276.321 118.144 276.532 118.356C276.744 118.568 277.03 118.687 277.329 118.687L337.078 117.724L336.538 100.225H277.329C277.03 100.231 276.745 100.356 276.538 100.572C276.33 100.788 276.217 101.078 276.222 101.378Z" fill="#2B2C84"/>
  <path d="M283.08 148.002C277.944 143.353 274.265 133.287 283.08 126.358H277.833C268.622 134.981 274.38 145.425 277.833 148.002H283.08Z" fill="#FEFFFF"/>
  <path d="M283.08 148.002C277.944 143.353 274.265 133.287 283.08 126.358H277.833C268.622 134.981 274.38 145.425 277.833 148.002H283.08Z" stroke="white" stroke-width="1.98" stroke-miterlimit="10"/>
  <path d="M332.058 136.333H338.487" stroke="#E2E6E9" stroke-width="1.98" stroke-miterlimit="10" stroke-linecap="round"/>
  <path d="M260.395 122.405C260.431 124.394 261.645 125.961 263.622 125.961H337.078V122.405H260.395Z" fill="#F7BF00"/>
  <path d="M337.078 119.482H319.084C317.532 119.482 315.822 120.544 315.822 122.099C315.822 123.654 317.477 124.72 319.028 124.72H337.066L337.078 119.482Z" fill="white"/>
  <path d="M322.91 111.854L319.997 115.668L277.329 116.435C277.03 116.435 276.744 116.554 276.532 116.766C276.321 116.978 276.202 117.265 276.202 117.565C276.202 117.864 276.321 118.152 276.532 118.363C276.744 118.575 277.03 118.694 277.329 118.694L337.078 117.724L336.546 111.854H322.91Z" fill="#161814"/>
  <path d="M342.499 86.6507L286.053 85.028C285.728 85.0157 285.404 85.0719 285.103 85.1932C284.801 85.3145 284.528 85.4981 284.302 85.732C282.191 87.9672 279.484 93.5789 284.076 100.245H342.499V86.6507Z" fill="#FACA00"/>
  <path d="M332.943 85.6121C332.424 85.2715 331.818 85.0872 331.198 85.0809C330.577 85.0745 329.968 85.2464 329.442 85.5763C328.238 86.247 326.875 86.5782 325.497 86.5348C319.271 86.5348 313.337 79.0259 313.337 69.612C313.337 63.7974 318.243 59.8958 323.096 59.8958C328.323 59.8958 330.24 62.5287 330.24 62.5287C330.24 62.5287 334.256 58.3208 339.507 59.2236C344.269 60.0429 348.008 64.5133 348.008 69.5961C348.008 77.4867 342.662 86.5348 336.439 86.5348C335.209 86.5962 333.99 86.2739 332.951 85.6121" fill="#FA4616"/>
  <path d="M323.096 59.8957C323.76 59.8859 324.424 59.9311 325.081 60.0309C322.477 60.6872 319.211 64.5092 319.211 70.3715C319.211 76.5162 321.878 82.4223 324.176 86.4074C318.461 85.437 313.341 78.3418 313.341 69.6C313.341 63.7854 318.247 59.8838 323.1 59.8838" fill="#EA2504"/>
  <path d="M312.425 88.1895C312.425 88.1895 309.123 93.0376 312.425 99.0511" stroke="white" stroke-width="2" stroke-miterlimit="10" stroke-linecap="round"/>
  <path d="M308.789 88.1895C308.789 88.1895 305.658 93.0376 308.789 99.0511" stroke="white" stroke-width="2" stroke-miterlimit="10" stroke-linecap="round"/>
  <path d="M291.732 88.1895C291.732 88.1895 288.43 93.0376 291.732 99.0511" stroke="white" stroke-width="2" stroke-miterlimit="10" stroke-linecap="round"/>
  <path d="M288.061 88.1895C288.061 88.1895 285.533 93.0376 288.668 99.0511" stroke="white" stroke-width="2" stroke-miterlimit="10" stroke-linecap="round"/>
  <path d="M319.997 115.668L278.604 116.436C281.564 112.105 281.564 105.988 278.604 102.516H321.005C321.327 102.511 321.643 102.593 321.922 102.752C322.202 102.912 322.433 103.143 322.593 103.423C324.879 107.559 323.99 111.795 320.005 115.676" fill="#FEFFFF"/>
  <path d="M285.842 109.714H313.627" stroke="#E2E6E9" stroke-width="1.98" stroke-miterlimit="10" stroke-linecap="round"/>
  <path d="M281.949 113.492L289.426 113.333" stroke="#E2E6E9" stroke-width="1.98" stroke-miterlimit="10" stroke-linecap="round"/>
  <path d="M328.212 101.537C328.212 101.537 333.05 108.986 327.764 116.436" stroke="#1D1D1B" stroke-width="1.98" stroke-linecap="round" stroke-linejoin="round"/>
  <path d="M323.45 105.475C323.243 104.755 322.95 104.064 322.577 103.415C322.416 103.137 322.184 102.906 321.905 102.747C321.626 102.588 321.31 102.505 320.989 102.508H278.604C278.997 102.972 279.338 103.479 279.62 104.019L323.45 105.475Z" fill="#E2E6E9"/>
  <path d="M309.297 106.743L314.333 115.771L304.007 115.954V108.453L309.297 106.743Z" fill="#E2E6E9"/>
  <path d="M305.146 123.332C305.146 123.332 304.432 119.016 307.698 118.205L303.801 118.269L301.201 123.332H305.146Z" fill="#F7BF00"/>
  <path d="M307.698 125.961C307.698 125.961 305.412 128.82 305.447 134.082L300.236 130.021L296.371 134.082C296.371 134.082 295.283 128.291 298.137 125.925L307.698 125.961Z" fill="#2B2C84"/>
  <path d="M304.721 132.615L298.367 127.667L293.605 132.607C293.605 132.607 290.942 108.907 298.181 106.735H309.293C300.534 109.229 304.717 132.607 304.717 132.607" fill="#FA4616"/>
  <path d="M281.675 95.0781C282.13 96.9388 282.938 98.6942 284.056 100.248H342.499V95.0781H281.675Z" fill="#F7BF00"/>
  <path d="M312.425 88.1895C312.425 88.1895 309.123 93.0376 312.425 99.051" stroke="#D6EAFF" stroke-width="2" stroke-miterlimit="10" stroke-linecap="round"/>
  <path d="M308.789 88.1895C308.789 88.1895 305.658 93.0376 308.789 99.051" stroke="#D6EAFF" stroke-width="2" stroke-miterlimit="10" stroke-linecap="round"/>
  <path d="M291.732 88.1895C291.732 88.1895 288.43 93.0376 291.732 99.051" stroke="#D6EAFF" stroke-width="2" stroke-miterlimit="10" stroke-linecap="round"/>
  <path d="M288.061 88.1895C288.061 88.1895 285.533 93.0376 288.668 99.051" stroke="#D6EAFF" stroke-width="2" stroke-miterlimit="10" stroke-linecap="round"/>
  <path d="M342.499 87.4453H318.711C318.711 87.4453 313.631 92.6673 318.711 99.0507H342.499V87.4453Z" fill="#FEFFFF"/>
  <path d="M318.497 92.3379H332.089" stroke="#E2E6E9" stroke-width="1.98" stroke-miterlimit="10" stroke-linecap="round"/>
  <path d="M0.396973 137.212H76.6279C77.0351 137.207 77.4308 137.348 77.7431 137.61C80.6958 140.147 81.3745 146.964 77.2113 150.416H0.396973V137.212Z" fill="#004BFF"/>
  <path d="M0.396973 137.212H76.6279C77.0351 137.207 77.4308 137.348 77.7431 137.61C80.6958 140.147 81.3745 146.964 77.2113 150.416H0.396973V137.212Z" stroke="#004BFF" stroke-width="1.98" stroke-miterlimit="10" stroke-linecap="round"/>
  <path d="M79.9814 145.523C79.6243 148.657 76.8065 150.395 76.8065 150.395H0.396973V145.523H79.9814Z" fill="#2B2C84"/>
  <path d="M79.9814 145.523C79.6243 148.657 76.8065 150.395 76.8065 150.395H0.396973V145.523H79.9814Z" stroke="#2B317F" stroke-width="1.98" stroke-miterlimit="10"/>
  <path d="M0.396973 138.321H49.6804C49.8285 138.322 49.973 138.367 50.0954 138.451C50.2177 138.534 50.3123 138.653 50.367 138.791C50.9464 140.298 52.4029 145.154 48.9541 149.27H0.396973V138.321Z" fill="#FEFFFF"/>
  <path d="M48.7437 142.935H34.9961" stroke="#E2E6E9" stroke-width="1.98" stroke-miterlimit="10" stroke-linecap="round"/>
  <path d="M56.189 137.212C56.189 137.212 59.0583 141.086 56.4112 148.3H60.9673C60.9673 148.3 63.2017 141.141 60.0505 137.212H56.189Z" fill="#2B2C84"/>
  <path d="M56.189 137.212C56.189 137.212 59.0583 141.086 56.4112 148.3H60.9673C60.9673 148.3 63.2017 141.141 60.0505 137.212H56.189Z" stroke="#2B317F" stroke-width="1.98" stroke-miterlimit="10"/>
  <path d="M57.2049 145.523C57.0106 146.462 56.7452 147.385 56.4111 148.284H60.9672C61.2297 147.379 61.4247 146.457 61.5506 145.523H57.2049Z" fill="#161814"/>
  <path d="M57.2049 145.523C57.0106 146.462 56.7452 147.385 56.4111 148.284H60.9672C61.2297 147.379 61.4247 146.457 61.5506 145.523H57.2049Z" stroke="#161814" stroke-width="1.98" stroke-miterlimit="10"/>
  <path d="M70.9326 137.212C70.9326 137.212 74.9013 141.372 72.3693 148.3H75.7705C75.7705 148.3 78.2946 142.156 74.7942 137.212H70.9326Z" fill="#2B2C84"/>
  <path d="M70.9326 137.212C70.9326 137.212 74.9013 141.372 72.3693 148.3H75.7705C75.7705 148.3 78.2946 142.156 74.7942 137.212H70.9326Z" stroke="#2B317F" stroke-width="1.98" stroke-miterlimit="10"/>
  <path d="M73.084 145.421C72.943 146.365 72.7035 147.291 72.3696 148.185H75.7708C76.1039 147.291 76.3421 146.365 76.4812 145.421H73.084Z" fill="#161814"/>
  <path d="M73.084 145.421C72.943 146.365 72.7035 147.291 72.3696 148.185H75.7708C76.1039 147.291 76.3421 146.365 76.4812 145.421H73.084Z" stroke="#161814" stroke-width="1.98" stroke-miterlimit="10"/>
  <path d="M70.9328 142.935H64.4082" stroke="#2B317F" stroke-width="1.98" stroke-miterlimit="10" stroke-linecap="round"/>
  <path d="M69.127 133.194L44.3027 133.278" stroke="#2B2C84" stroke-width="1.98" stroke-miterlimit="10" stroke-linecap="round"/>
  <path d="M43.7272 136.815H18.7482C18.3282 136.031 18.1084 135.155 18.1084 134.265C18.1084 133.376 18.3282 132.5 18.7482 131.716L47.3705 132.03C46.2989 133.108 42.7509 135.844 43.7272 136.803" fill="#EA2504"/>
  <path d="M23.9872 136.815H22.0227C21.5068 135.154 21.5068 133.376 22.0227 131.716H23.9872V136.815Z" fill="#FEFFFF"/>
  <path d="M47.3708 136.818L53.4905 134.268L47.3708 132.033L41.8701 134.268L47.3708 136.818Z" fill="#FEFFFF"/>
  <path d="M47.3706 136.815H23.987C23.4711 135.154 23.4711 133.376 23.987 131.716L47.3706 132.03C46.6404 133.108 46.7357 135.844 47.3706 136.803" fill="#FA4616"/>
  <path d="M23.9872 136.815H47.3708C47.1281 136.371 46.9769 135.882 46.9263 135.379L23.6221 134.778C23.663 135.469 23.7856 136.153 23.9872 136.815Z" fill="#EA2504"/>
  <path d="M51.5935 135.056L53.4905 134.26L51.6927 133.513C51.5122 134.004 51.4778 134.537 51.5935 135.048" fill="#FA4616"/>
  <path d="M275.079 75.594C274.52 76.8309 273.401 77.5308 272.583 77.157C271.765 76.7831 271.547 75.4826 272.107 74.2457C272.666 73.0088 273.781 72.3088 274.603 72.6827C275.425 73.0565 275.635 74.3571 275.079 75.594Z" fill="#2B2C84"/>
  <path d="M274.738 79.8331C274.738 79.9857 274.692 80.1349 274.608 80.2618C274.523 80.3886 274.403 80.4875 274.262 80.5459C274.122 80.6043 273.967 80.6196 273.817 80.5898C273.668 80.5601 273.531 80.4866 273.423 80.3787C273.316 80.2708 273.242 80.1333 273.213 79.9836C273.183 79.8339 273.198 79.6788 273.256 79.5378C273.315 79.3968 273.413 79.2763 273.54 79.1916C273.667 79.1068 273.815 79.0615 273.968 79.0615C274.069 79.0615 274.169 79.0815 274.262 79.1203C274.356 79.159 274.441 79.2159 274.512 79.2875C274.584 79.3592 274.64 79.4442 274.679 79.5378C274.718 79.6314 274.738 79.7318 274.738 79.8331Z" fill="#2B2C84"/>
  <path d="M268.705 41.7083C268.705 41.7083 264.737 39.5169 264.05 41.7083C262.899 45.3793 268.705 50.8041 268.705 50.8041V41.7083Z" fill="#2B2C84"/>
  <path d="M279.719 68.5664C279.719 68.5664 278.27 70.1016 278.583 71.8754C278.897 73.6492 281.254 73.9594 281.254 73.9594C280.889 72.123 280.376 70.3193 279.719 68.5664Z" fill="#2B2C84"/>
  <path d="M279.719 68.5664C279.719 68.5664 278.27 70.1016 278.583 71.8754C278.897 73.6492 281.254 73.9594 281.254 73.9594C280.889 72.123 280.376 70.3193 279.719 68.5664V68.5664Z" stroke="#2B317F" stroke-width="1.98" stroke-miterlimit="10"/>
  <path d="M157.475 51.8662C157.475 51.8662 164.829 56.5394 175.937 58.4444C175.937 58.4444 184.017 56.2331 190.105 52.1884" stroke="#2B2C84" stroke-width="1.98" stroke-miterlimit="10" stroke-linecap="round"/>
  <path d="M203.733 70.6338L204.753 76.2893" stroke="#F7BF00" stroke-width="2" stroke-miterlimit="10" stroke-linecap="round"/>
  <path d="M329.295 63.5068C328.452 64.5378 327.819 65.7253 327.434 67.0014C327.048 68.2776 326.918 69.6173 327.049 70.9441" stroke="#EA2504" stroke-width="2" stroke-miterlimit="10" stroke-linecap="round"/>
  <path d="M209.766 133.235C211.421 130.415 213.683 128.665 217.533 129.655C221.383 130.645 223.216 131.003 224.716 131.361C226.216 131.719 227.344 132.73 228.649 135.788C230.157 139.32 233.9 144.812 228.252 143.981C220.906 142.915 209.766 133.235 209.766 133.235Z" fill="#FCA92E"/>
  <path d="M224.657 133.58C225.808 136.071 226.694 138.678 227.3 141.355" stroke="#1D1D1B" stroke-width="1.98" stroke-linecap="round" stroke-linejoin="round"/>
  <path d="M220.581 133.19C221.181 135.591 221.58 138.037 221.772 140.504" stroke="#1D1D1B" stroke-width="1.98" stroke-linecap="round" stroke-linejoin="round"/>
  <path d="M216.537 132.599C216.88 135.024 217.082 137.468 217.14 139.917" stroke="#1D1D1B" stroke-width="1.98" stroke-linecap="round" stroke-linejoin="round"/>
  <path d="M180.973 145.759C180.973 145.759 186.529 138.779 195.625 139.26C205.631 139.793 222.831 149.454 241.809 149.454L240.619 139.71C217.001 139.71 208.869 127.289 195.074 127.289C181.54 127.289 173.611 136.671 173.611 136.671C173.611 136.671 166.761 127.289 152.144 127.289C138.353 127.289 131.011 138.914 107.393 138.914L105.806 149.454C129.221 149.454 138.528 139.165 151.597 139.26C162.518 139.34 166.467 146.288 166.467 146.288C166.467 146.288 173.809 148.511 180.973 145.759Z" fill="#FEFFFF"/>
  <path d="M116.121 142.319C116.121 142.319 128.495 140.33 138.619 135.558" stroke="#E2E6E9" stroke-width="1.98" stroke-miterlimit="10" stroke-linecap="round"/>
  <path d="M143.961 133.278C145.58 132.773 147.533 132.32 149.025 132.455" stroke="#E2E6E9" stroke-width="1.98" stroke-miterlimit="10" stroke-linecap="round"/>
  <path d="M197.4 133.58C197.4 133.58 202.46 133.58 210.056 136.965" stroke="#E2E6E9" stroke-width="1.98" stroke-miterlimit="10" stroke-linecap="round"/>
  <path d="M265.879 141.662C265.879 141.662 267.292 146.435 270.797 148.002H336.546V141.662H265.879Z" fill="#2B2C84"/>
  <path d="M265.879 141.662C265.879 141.662 267.292 146.435 270.797 148.002H336.546V141.662H265.879Z" stroke="#2B317F" stroke-width="1.98" stroke-miterlimit="10"/>
  <path d="M277.829 147.802H283.08C280.453 145.774 278.714 141.463 278.714 141.463H273.658C273.658 141.463 274.885 145.532 277.829 147.802Z" fill="#E2E6E9"/>
  <path d="M277.829 147.802H283.08C280.453 145.774 278.714 141.463 278.714 141.463H273.658C273.658 141.463 274.885 145.532 277.829 147.802Z" stroke="#E2E6E9" stroke-width="1.98" stroke-miterlimit="10"/>
  <path d="M337.078 148.002H316.112C311.191 143.647 309.674 134.205 315.441 128.422C315.691 128.169 315.99 127.97 316.32 127.837C316.649 127.704 317.003 127.641 317.358 127.65L337.078 128.291V148.002Z" fill="#FEFFFF"/>
  <path d="M337.078 148.002H316.112C311.191 143.647 309.674 134.205 315.441 128.422C315.691 128.169 315.99 127.97 316.32 127.837C316.649 127.704 317.003 127.641 317.358 127.65L337.078 128.291V148.002Z" stroke="white" stroke-width="1.98" stroke-miterlimit="10"/>
  <path d="M324.259 132.359H337.078" stroke="#E2E6E9" stroke-width="1.98" stroke-miterlimit="10" stroke-linecap="round"/>
  <path d="M316.302 136.333H326.954" stroke="#E2E6E9" stroke-width="1.98" stroke-miterlimit="10" stroke-linecap="round"/>
  <path d="M332.879 56.2324C332.879 56.2324 330.593 57.354 330.407 61.1402" stroke="#1D1D1B" stroke-width="1.98" stroke-linecap="round" stroke-linejoin="round"/>
  <path d="M337.078 148.002H316.112C311.191 143.647 309.674 134.205 315.441 128.422C315.691 128.169 315.99 127.97 316.32 127.837C316.649 127.704 317.003 127.641 317.358 127.65L337.078 128.291V148.002Z" fill="#E2E6E9"/>
  <path d="M337.078 148.002H316.112C311.191 143.647 309.674 134.205 315.441 128.422C315.691 128.169 315.99 127.97 316.32 127.837C316.649 127.704 317.003 127.641 317.358 127.65L337.078 128.291V148.002Z" stroke="#E2E6E9" stroke-width="2" stroke-miterlimit="10"/>
  </g>
  <defs>
  <clipPath id="clip0_543_7676">
  <rect width="348" height="172" fill="white"/>
  </clipPath>
  </defs>
  </svg>
  