<svg width="26" height="24" viewBox="0 0 26 24" fill="none" xmlns="http://www.w3.org/2000/svg">
  <path d="M14.6216 5C14.6216 6.10457 13.7262 7 12.6216 7C11.517 7 10.6216 6.10457 10.6216 5C10.6216 3.89543 11.517 3 12.6216 3C13.7262 3 14.6216 3.89543 14.6216 5Z" fill="#E3E5E8"/>
  <path d="M14.6216 12C14.6216 13.1046 13.7262 14 12.6216 14C11.517 14 10.6216 13.1046 10.6216 12C10.6216 10.8954 11.517 10 12.6216 10C13.7262 10 14.6216 10.8954 14.6216 12Z" fill="#E3E5E8"/>
  <path d="M14.6216 19C14.6216 20.1046 13.7262 21 12.6216 21C11.517 21 10.6216 20.1046 10.6216 19C10.6216 17.8954 11.517 17 12.6216 17C13.7262 17 14.6216 17.8954 14.6216 19Z" fill="#E3E5E8"/>
  </svg>
  