<svg width="713" height="108" viewBox="0 0 713 108" fill="none" xmlns="http://www.w3.org/2000/svg">
  <rect width="674" height="4" transform="matrix(1 0 0 -1 16 52)" fill="#D5D9DC"/>
  <rect x="13" y="46" width="8" height="8" rx="4" fill="#FA4616"/>
  <rect x="20" y="48" width="27" height="4" fill="#FA4616"/>
  <rect x="16" width="26" height="50" fill="url(#paint0_linear_520_24546)"/>
  <circle cx="42" cy="50" r="5" fill="white" stroke="#FA4616" stroke-width="2"/>
  <rect x="181" y="46" width="8" height="8" rx="4" fill="#D5D9DC"/>
  <rect x="86" y="46" width="8" height="8" rx="4" fill="#D5D9DC"/>
  <rect x="685" y="46" width="8" height="8" rx="4" fill="#D5D9DC"/>
  <rect x="558" y="46" width="8" height="8" rx="4" fill="#D5D9DC"/>
  <rect x="371" y="46" width="8" height="8" rx="4" fill="#D5D9DC"/>
  <path d="M1.296 71.112H2.976V65.304L3.096 64.596L2.616 65.16L1.296 66.108L0.84 65.496L3.48 63.456H3.912V71.112H5.556V72H1.296V71.112ZM15.9663 73.524H15.3183L15.1383 72H10.6263L10.4463 73.524H9.79828V71.16H10.5063C10.5703 71.072 10.6543 70.916 10.7583 70.692C10.8623 70.46 10.9623 70.14 11.0583 69.732C11.1623 69.316 11.2503 68.804 11.3223 68.196C11.4023 67.58 11.4503 66.848 11.4663 66H15.0903V71.16H15.9663V73.524ZM14.1303 71.16V66.84H12.3303C12.3143 67.176 12.2863 67.544 12.2463 67.944C12.2063 68.336 12.1503 68.732 12.0783 69.132C12.0143 69.524 11.9303 69.896 11.8263 70.248C11.7223 70.6 11.6023 70.904 11.4663 71.16H14.1303ZM21.5345 71.52C21.2945 71.712 20.9905 71.864 20.6225 71.976C20.2625 72.088 19.8785 72.144 19.4705 72.144C19.0145 72.144 18.6185 72.072 18.2825 71.928C17.9465 71.776 17.6705 71.564 17.4545 71.292C17.2385 71.012 17.0785 70.68 16.9745 70.296C16.8705 69.912 16.8185 69.48 16.8185 69C16.8185 67.976 17.0465 67.196 17.5025 66.66C17.9585 66.124 18.6105 65.856 19.4585 65.856C19.7305 65.856 20.0025 65.888 20.2745 65.952C20.5465 66.008 20.7905 66.12 21.0065 66.288C21.2225 66.456 21.3985 66.696 21.5345 67.008C21.6705 67.312 21.7385 67.716 21.7385 68.22C21.7385 68.484 21.7145 68.776 21.6665 69.096H17.8145C17.8145 69.448 17.8505 69.76 17.9225 70.032C17.9945 70.304 18.1065 70.536 18.2585 70.728C18.4105 70.912 18.6065 71.056 18.8465 71.16C19.0945 71.256 19.3945 71.304 19.7465 71.304C20.0185 71.304 20.2905 71.256 20.5625 71.16C20.8345 71.064 21.0385 70.952 21.1745 70.824L21.5345 71.52ZM19.4705 66.696C18.9985 66.696 18.6185 66.82 18.3305 67.068C18.0505 67.316 17.8825 67.74 17.8265 68.34H20.8025C20.8025 67.732 20.6865 67.308 20.4545 67.068C20.2225 66.82 19.8945 66.696 19.4705 66.696ZM26.9202 69.348H24.2082V72H23.2482V66H24.2082V68.508H26.9202V66H27.8802V72H26.9202V69.348ZM30.6887 71.16C30.9847 71.208 31.2687 71.232 31.5407 71.232C32.0447 71.232 32.4167 71.136 32.6567 70.944C32.8967 70.744 33.0167 70.464 33.0167 70.104C33.0167 69.784 32.9007 69.52 32.6687 69.312C32.4367 69.104 32.0727 69 31.5767 69C31.4407 69 31.2927 69.004 31.1327 69.012C30.9727 69.02 30.8247 69.044 30.6887 69.084V71.16ZM30.6887 68.292C30.8807 68.26 31.0647 68.24 31.2407 68.232C31.4167 68.216 31.5847 68.208 31.7447 68.208C32.1607 68.208 32.5127 68.256 32.8007 68.352C33.0887 68.44 33.3207 68.564 33.4967 68.724C33.6807 68.884 33.8127 69.076 33.8927 69.3C33.9727 69.516 34.0127 69.748 34.0127 69.996C34.0127 70.724 33.7927 71.252 33.3527 71.58C32.9207 71.908 32.2447 72.072 31.3247 72.072C30.8127 72.072 30.2807 72.048 29.7287 72V66H30.6887V68.292Z" fill="#979A9D"/>
  <path d="M68.296 71.112H69.976V65.304L70.096 64.596L69.616 65.16L68.296 66.108L67.84 65.496L70.48 63.456H70.912V71.112H72.556V72H68.296V71.112ZM81.3343 69.348H78.6223V72H77.6623V66H78.6223V68.508H81.3343V66H82.2943V72H81.3343V69.348ZM88.5228 71.52C88.2828 71.712 87.9788 71.864 87.6108 71.976C87.2508 72.088 86.8668 72.144 86.4588 72.144C86.0028 72.144 85.6068 72.072 85.2708 71.928C84.9348 71.776 84.6588 71.564 84.4428 71.292C84.2268 71.012 84.0668 70.68 83.9628 70.296C83.8588 69.912 83.8068 69.48 83.8068 69C83.8068 67.976 84.0348 67.196 84.4908 66.66C84.9468 66.124 85.5988 65.856 86.4468 65.856C86.7188 65.856 86.9908 65.888 87.2628 65.952C87.5348 66.008 87.7788 66.12 87.9948 66.288C88.2108 66.456 88.3868 66.696 88.5228 67.008C88.6588 67.312 88.7268 67.716 88.7268 68.22C88.7268 68.484 88.7028 68.776 88.6548 69.096H84.8027C84.8027 69.448 84.8388 69.76 84.9108 70.032C84.9828 70.304 85.0948 70.536 85.2468 70.728C85.3988 70.912 85.5948 71.056 85.8348 71.16C86.0828 71.256 86.3828 71.304 86.7348 71.304C87.0068 71.304 87.2788 71.256 87.5508 71.16C87.8228 71.064 88.0268 70.952 88.1628 70.824L88.5228 71.52ZM86.4588 66.696C85.9868 66.696 85.6068 66.82 85.3188 67.068C85.0388 67.316 84.8708 67.74 84.8148 68.34H87.7908C87.7908 67.732 87.6748 67.308 87.4428 67.068C87.2108 66.82 86.8828 66.696 86.4588 66.696ZM95.271 73.524H94.623L94.443 72H89.931L89.751 73.524H89.103V71.16H89.811C89.875 71.072 89.959 70.916 90.063 70.692C90.167 70.46 90.267 70.14 90.363 69.732C90.467 69.316 90.555 68.804 90.627 68.196C90.707 67.58 90.755 66.848 90.771 66H94.395V71.16H95.271V73.524ZM93.435 71.16V66.84H91.635C91.619 67.176 91.591 67.544 91.551 67.944C91.511 68.336 91.455 68.732 91.383 69.132C91.319 69.524 91.235 69.896 91.131 70.248C91.027 70.6 90.907 70.904 90.771 71.16H93.435ZM100.839 71.52C100.599 71.712 100.295 71.864 99.9272 71.976C99.5672 72.088 99.1832 72.144 98.7752 72.144C98.3192 72.144 97.9232 72.072 97.5872 71.928C97.2512 71.776 96.9752 71.564 96.7592 71.292C96.5432 71.012 96.3832 70.68 96.2792 70.296C96.1752 69.912 96.1232 69.48 96.1232 69C96.1232 67.976 96.3512 67.196 96.8072 66.66C97.2632 66.124 97.9152 65.856 98.7632 65.856C99.0352 65.856 99.3072 65.888 99.5792 65.952C99.8512 66.008 100.095 66.12 100.311 66.288C100.527 66.456 100.703 66.696 100.839 67.008C100.975 67.312 101.043 67.716 101.043 68.22C101.043 68.484 101.019 68.776 100.971 69.096H97.1192C97.1192 69.448 97.1552 69.76 97.2272 70.032C97.2992 70.304 97.4112 70.536 97.5632 70.728C97.7152 70.912 97.9112 71.056 98.1512 71.16C98.3992 71.256 98.6992 71.304 99.0512 71.304C99.3232 71.304 99.5952 71.256 99.8672 71.16C100.139 71.064 100.343 70.952 100.479 70.824L100.839 71.52ZM98.7752 66.696C98.3032 66.696 97.9232 66.82 97.6352 67.068C97.3552 67.316 97.1872 67.74 97.1312 68.34H100.107C100.107 67.732 99.9912 67.308 99.7592 67.068C99.5272 66.82 99.1992 66.696 98.7752 66.696ZM105.511 66.84H103.771C103.747 67.176 103.723 67.54 103.699 67.932C103.675 68.316 103.639 68.704 103.591 69.096C103.543 69.48 103.479 69.852 103.399 70.212C103.319 70.564 103.215 70.876 103.087 71.148C102.967 71.42 102.815 71.64 102.631 71.808C102.455 71.968 102.243 72.048 101.995 72.048C101.843 72.048 101.711 72.04 101.599 72.024C101.487 72.008 101.387 71.98 101.299 71.94L101.443 71.136C101.539 71.168 101.643 71.184 101.755 71.184C101.915 71.184 102.059 71.116 102.187 70.98C102.315 70.844 102.427 70.588 102.523 70.212C102.619 69.828 102.699 69.3 102.763 68.628C102.827 67.956 102.871 67.08 102.895 66H106.471V72H105.511V66.84ZM111.307 69.516L110.383 69.66L108.799 72H107.635L109.075 69.948L109.555 69.504C109.139 69.44 108.783 69.272 108.487 69C108.199 68.728 108.055 68.36 108.055 67.896C108.055 67.536 108.115 67.228 108.235 66.972C108.363 66.716 108.543 66.504 108.775 66.336C109.007 66.168 109.283 66.048 109.603 65.976C109.923 65.896 110.283 65.856 110.683 65.856C110.979 65.856 111.255 65.876 111.511 65.916C111.767 65.956 112.019 66 112.267 66.048V72H111.307V69.516ZM111.307 66.816C111.203 66.776 111.087 66.748 110.959 66.732C110.831 66.708 110.719 66.696 110.623 66.696C110.111 66.696 109.719 66.788 109.447 66.972C109.183 67.156 109.051 67.448 109.051 67.848C109.051 68.208 109.191 68.488 109.471 68.688C109.759 68.88 110.135 68.976 110.599 68.976C110.607 68.976 110.619 68.976 110.635 68.976C110.651 68.976 110.683 68.976 110.731 68.976C110.779 68.976 110.847 68.976 110.935 68.976C111.023 68.968 111.147 68.96 111.307 68.952V66.816Z" fill="#979A9D"/>
  <path d="M519.892 64.488H516.016V72H515.02V63.6H520.888V72H519.892V64.488ZM522.498 69C522.498 67.984 522.722 67.208 523.17 66.672C523.626 66.128 524.278 65.856 525.126 65.856C525.574 65.856 525.962 65.932 526.29 66.084C526.626 66.228 526.902 66.44 527.118 66.72C527.334 66.992 527.494 67.324 527.598 67.716C527.702 68.1 527.754 68.528 527.754 69C527.754 70.016 527.526 70.796 527.07 71.34C526.622 71.876 525.974 72.144 525.126 72.144C524.678 72.144 524.286 72.072 523.95 71.928C523.622 71.776 523.35 71.564 523.134 71.292C522.918 71.012 522.758 70.68 522.654 70.296C522.55 69.904 522.498 69.472 522.498 69ZM523.494 69C523.494 69.304 523.522 69.596 523.578 69.876C523.642 70.156 523.738 70.4 523.866 70.608C523.994 70.816 524.162 70.984 524.37 71.112C524.578 71.24 524.83 71.304 525.126 71.304C526.214 71.312 526.758 70.544 526.758 69C526.758 68.688 526.726 68.392 526.662 68.112C526.606 67.832 526.514 67.588 526.386 67.38C526.258 67.172 526.09 67.008 525.882 66.888C525.674 66.76 525.422 66.696 525.126 66.696C524.038 66.688 523.494 67.456 523.494 69ZM533.36 71.604C533.12 71.78 532.836 71.912 532.508 72C532.18 72.096 531.836 72.144 531.476 72.144C531.012 72.144 530.62 72.072 530.3 71.928C529.98 71.776 529.716 71.564 529.508 71.292C529.308 71.012 529.16 70.68 529.064 70.296C528.976 69.904 528.932 69.472 528.932 69C528.932 67.984 529.156 67.208 529.604 66.672C530.052 66.128 530.696 65.856 531.536 65.856C531.92 65.856 532.244 65.888 532.508 65.952C532.78 66.008 533.024 66.092 533.24 66.204L532.964 67.032C532.78 66.928 532.576 66.848 532.352 66.792C532.128 66.728 531.888 66.696 531.632 66.696C530.496 66.696 529.928 67.464 529.928 69C529.928 69.304 529.956 69.596 530.012 69.876C530.076 70.148 530.176 70.392 530.312 70.608C530.456 70.816 530.64 70.984 530.864 71.112C531.096 71.24 531.38 71.304 531.716 71.304C532.004 71.304 532.26 71.26 532.484 71.172C532.716 71.084 532.904 70.984 533.048 70.872L533.36 71.604ZM537.898 66.84H536.158C536.134 67.176 536.11 67.54 536.086 67.932C536.062 68.316 536.026 68.704 535.978 69.096C535.93 69.48 535.866 69.852 535.786 70.212C535.706 70.564 535.602 70.876 535.474 71.148C535.354 71.42 535.202 71.64 535.018 71.808C534.842 71.968 534.63 72.048 534.382 72.048C534.23 72.048 534.098 72.04 533.986 72.024C533.874 72.008 533.774 71.98 533.686 71.94L533.83 71.136C533.926 71.168 534.03 71.184 534.142 71.184C534.302 71.184 534.446 71.116 534.574 70.98C534.702 70.844 534.814 70.588 534.91 70.212C535.006 69.828 535.086 69.3 535.15 68.628C535.214 67.956 535.258 67.08 535.282 66H538.858V72H537.898V66.84ZM545.085 71.52C544.845 71.712 544.541 71.864 544.173 71.976C543.813 72.088 543.429 72.144 543.021 72.144C542.565 72.144 542.169 72.072 541.833 71.928C541.497 71.776 541.221 71.564 541.005 71.292C540.789 71.012 540.629 70.68 540.525 70.296C540.421 69.912 540.369 69.48 540.369 69C540.369 67.976 540.597 67.196 541.053 66.66C541.509 66.124 542.161 65.856 543.009 65.856C543.281 65.856 543.553 65.888 543.825 65.952C544.097 66.008 544.341 66.12 544.557 66.288C544.773 66.456 544.949 66.696 545.085 67.008C545.221 67.312 545.289 67.716 545.289 68.22C545.289 68.484 545.265 68.776 545.217 69.096H541.365C541.365 69.448 541.401 69.76 541.473 70.032C541.545 70.304 541.657 70.536 541.809 70.728C541.961 70.912 542.157 71.056 542.397 71.16C542.645 71.256 542.945 71.304 543.297 71.304C543.569 71.304 543.841 71.256 544.113 71.16C544.385 71.064 544.589 70.952 544.725 70.824L545.085 71.52ZM543.021 66.696C542.549 66.696 542.169 66.82 541.881 67.068C541.601 67.316 541.433 67.74 541.377 68.34H544.353C544.353 67.732 544.237 67.308 544.005 67.068C543.773 66.82 543.445 66.696 543.021 66.696ZM551.833 73.524H551.185L551.005 72H546.493L546.313 73.524H545.665V71.16H546.373C546.437 71.072 546.521 70.916 546.625 70.692C546.729 70.46 546.829 70.14 546.925 69.732C547.029 69.316 547.117 68.804 547.189 68.196C547.269 67.58 547.317 66.848 547.333 66H550.957V71.16H551.833V73.524ZM549.997 71.16V66.84H548.197C548.181 67.176 548.153 67.544 548.113 67.944C548.073 68.336 548.017 68.732 547.945 69.132C547.881 69.524 547.797 69.896 547.693 70.248C547.589 70.6 547.469 70.904 547.333 71.16H549.997ZM556.694 69.348H553.982V72H553.022V66H553.982V68.508H556.694V66H557.654V72H556.694V69.348ZM562.49 69.516L561.566 69.66L559.982 72H558.818L560.258 69.948L560.738 69.504C560.322 69.44 559.966 69.272 559.67 69C559.382 68.728 559.238 68.36 559.238 67.896C559.238 67.536 559.298 67.228 559.418 66.972C559.546 66.716 559.726 66.504 559.958 66.336C560.19 66.168 560.466 66.048 560.786 65.976C561.106 65.896 561.466 65.856 561.866 65.856C562.162 65.856 562.438 65.876 562.694 65.916C562.95 65.956 563.202 66 563.45 66.048V72H562.49V69.516ZM562.49 66.816C562.386 66.776 562.27 66.748 562.142 66.732C562.014 66.708 561.902 66.696 561.806 66.696C561.294 66.696 560.902 66.788 560.63 66.972C560.366 67.156 560.234 67.448 560.234 67.848C560.234 68.208 560.374 68.488 560.654 68.688C560.942 68.88 561.318 68.976 561.782 68.976C561.79 68.976 561.802 68.976 561.818 68.976C561.834 68.976 561.866 68.976 561.914 68.976C561.962 68.976 562.03 68.976 562.118 68.976C562.206 68.968 562.33 68.96 562.49 68.952V66.816ZM568.185 69.516L567.261 69.66L565.677 72H564.513L565.953 69.948L566.433 69.504C566.017 69.44 565.661 69.272 565.365 69C565.077 68.728 564.933 68.36 564.933 67.896C564.933 67.536 564.993 67.228 565.113 66.972C565.241 66.716 565.421 66.504 565.653 66.336C565.885 66.168 566.161 66.048 566.481 65.976C566.801 65.896 567.161 65.856 567.561 65.856C567.857 65.856 568.133 65.876 568.389 65.916C568.645 65.956 568.897 66 569.145 66.048V72H568.185V69.516ZM568.185 66.816C568.081 66.776 567.965 66.748 567.837 66.732C567.709 66.708 567.597 66.696 567.501 66.696C566.989 66.696 566.597 66.788 566.325 66.972C566.061 67.156 565.929 67.448 565.929 67.848C565.929 68.208 566.069 68.488 566.349 68.688C566.637 68.88 567.013 68.976 567.477 68.976C567.485 68.976 567.497 68.976 567.513 68.976C567.529 68.976 567.561 68.976 567.609 68.976C567.657 68.976 567.725 68.976 567.813 68.976C567.901 68.968 568.025 68.96 568.185 68.952V66.816ZM577.764 69.348H575.052V72H574.092V66H575.052V68.508H577.764V66H578.724V72H577.764V69.348ZM584.952 71.52C584.712 71.712 584.408 71.864 584.04 71.976C583.68 72.088 583.296 72.144 582.888 72.144C582.432 72.144 582.036 72.072 581.7 71.928C581.364 71.776 581.088 71.564 580.872 71.292C580.656 71.012 580.496 70.68 580.392 70.296C580.288 69.912 580.236 69.48 580.236 69C580.236 67.976 580.464 67.196 580.92 66.66C581.376 66.124 582.028 65.856 582.876 65.856C583.148 65.856 583.42 65.888 583.692 65.952C583.964 66.008 584.208 66.12 584.424 66.288C584.64 66.456 584.816 66.696 584.952 67.008C585.088 67.312 585.156 67.716 585.156 68.22C585.156 68.484 585.132 68.776 585.084 69.096H581.232C581.232 69.448 581.268 69.76 581.34 70.032C581.412 70.304 581.524 70.536 581.676 70.728C581.828 70.912 582.024 71.056 582.264 71.16C582.512 71.256 582.812 71.304 583.164 71.304C583.436 71.304 583.708 71.256 583.98 71.16C584.252 71.064 584.456 70.952 584.592 70.824L584.952 71.52ZM582.888 66.696C582.416 66.696 582.036 66.82 581.748 67.068C581.468 67.316 581.3 67.74 581.244 68.34H584.22C584.22 67.732 584.104 67.308 583.872 67.068C583.64 66.82 583.312 66.696 582.888 66.696ZM591.701 73.524H591.053L590.873 72H586.361L586.181 73.524H585.533V71.16H586.241C586.305 71.072 586.389 70.916 586.493 70.692C586.597 70.46 586.697 70.14 586.793 69.732C586.897 69.316 586.985 68.804 587.057 68.196C587.137 67.58 587.185 66.848 587.201 66H590.825V71.16H591.701V73.524ZM589.865 71.16V66.84H588.065C588.049 67.176 588.021 67.544 587.981 67.944C587.941 68.336 587.885 68.732 587.813 69.132C587.749 69.524 587.665 69.896 587.561 70.248C587.457 70.6 587.337 70.904 587.201 71.16H589.865ZM597.269 71.52C597.029 71.712 596.725 71.864 596.357 71.976C595.997 72.088 595.613 72.144 595.205 72.144C594.749 72.144 594.353 72.072 594.017 71.928C593.681 71.776 593.405 71.564 593.189 71.292C592.973 71.012 592.813 70.68 592.709 70.296C592.605 69.912 592.553 69.48 592.553 69C592.553 67.976 592.781 67.196 593.237 66.66C593.693 66.124 594.345 65.856 595.193 65.856C595.465 65.856 595.737 65.888 596.009 65.952C596.281 66.008 596.525 66.12 596.741 66.288C596.957 66.456 597.133 66.696 597.269 67.008C597.405 67.312 597.473 67.716 597.473 68.22C597.473 68.484 597.449 68.776 597.401 69.096H593.549C593.549 69.448 593.585 69.76 593.657 70.032C593.729 70.304 593.841 70.536 593.993 70.728C594.145 70.912 594.341 71.056 594.581 71.16C594.829 71.256 595.129 71.304 595.481 71.304C595.753 71.304 596.025 71.256 596.297 71.16C596.569 71.064 596.773 70.952 596.909 70.824L597.269 71.52ZM595.205 66.696C594.733 66.696 594.353 66.82 594.065 67.068C593.785 67.316 593.617 67.74 593.561 68.34H596.537C596.537 67.732 596.421 67.308 596.189 67.068C595.957 66.82 595.629 66.696 595.205 66.696ZM601.941 66.84H600.201C600.177 67.176 600.153 67.54 600.129 67.932C600.105 68.316 600.069 68.704 600.021 69.096C599.973 69.48 599.909 69.852 599.829 70.212C599.749 70.564 599.645 70.876 599.517 71.148C599.397 71.42 599.245 71.64 599.061 71.808C598.885 71.968 598.673 72.048 598.425 72.048C598.273 72.048 598.141 72.04 598.029 72.024C597.917 72.008 597.817 71.98 597.729 71.94L597.873 71.136C597.969 71.168 598.073 71.184 598.185 71.184C598.345 71.184 598.489 71.116 598.617 70.98C598.745 70.844 598.857 70.588 598.953 70.212C599.049 69.828 599.129 69.3 599.193 68.628C599.257 67.956 599.301 67.08 599.325 66H602.901V72H601.941V66.84ZM607.736 69.516L606.812 69.66L605.228 72H604.064L605.504 69.948L605.984 69.504C605.568 69.44 605.212 69.272 604.916 69C604.628 68.728 604.484 68.36 604.484 67.896C604.484 67.536 604.544 67.228 604.664 66.972C604.792 66.716 604.972 66.504 605.204 66.336C605.436 66.168 605.712 66.048 606.032 65.976C606.352 65.896 606.712 65.856 607.112 65.856C607.408 65.856 607.684 65.876 607.94 65.916C608.196 65.956 608.448 66 608.696 66.048V72H607.736V69.516ZM607.736 66.816C607.632 66.776 607.516 66.748 607.388 66.732C607.26 66.708 607.148 66.696 607.052 66.696C606.54 66.696 606.148 66.788 605.876 66.972C605.612 67.156 605.48 67.448 605.48 67.848C605.48 68.208 605.62 68.488 605.9 68.688C606.188 68.88 606.564 68.976 607.028 68.976C607.036 68.976 607.048 68.976 607.064 68.976C607.08 68.976 607.112 68.976 607.16 68.976C607.208 68.976 607.276 68.976 607.364 68.976C607.452 68.968 607.576 68.96 607.736 68.952V66.816Z" fill="#979A9D"/>
  <path d="M667.808 70.304C668.08 70.304 668.332 70.264 668.564 70.184C668.796 70.104 668.996 69.988 669.164 69.836C669.332 69.676 669.464 69.488 669.56 69.272C669.656 69.056 669.704 68.82 669.704 68.564C669.704 68.004 669.536 67.588 669.2 67.316C668.872 67.044 668.416 66.908 667.832 66.908H666.944V66.56L668.672 63.896L669.224 63.368L668.444 63.488H666.068V62.6H670.352V62.948L668.444 65.816L668.024 66.164V66.188L668.432 66.104C668.752 66.112 669.048 66.172 669.32 66.284C669.592 66.388 669.828 66.544 670.028 66.752C670.228 66.952 670.384 67.196 670.496 67.484C670.608 67.764 670.664 68.084 670.664 68.444C670.664 68.876 670.588 69.26 670.436 69.596C670.284 69.932 670.076 70.216 669.812 70.448C669.556 70.672 669.252 70.844 668.9 70.964C668.548 71.084 668.176 71.144 667.784 71.144C667.424 71.144 667.1 71.116 666.812 71.06C666.524 71.004 666.272 70.932 666.056 70.844L666.308 69.992C666.492 70.08 666.708 70.156 666.956 70.22C667.212 70.276 667.496 70.304 667.808 70.304ZM680.618 67.436L680.69 66.296H680.63L680.198 67.22L678.746 69.572H678.41L676.898 67.22L676.502 66.296H676.454L676.55 67.424V71H675.662V65H676.61L678.29 67.688L678.638 68.384H678.662L679.022 67.664L680.594 65H681.554V71H680.618V67.436ZM687.777 70.52C687.537 70.712 687.233 70.864 686.865 70.976C686.505 71.088 686.121 71.144 685.713 71.144C685.257 71.144 684.861 71.072 684.525 70.928C684.189 70.776 683.913 70.564 683.697 70.292C683.481 70.012 683.321 69.68 683.217 69.296C683.113 68.912 683.061 68.48 683.061 68C683.061 66.976 683.289 66.196 683.745 65.66C684.201 65.124 684.853 64.856 685.701 64.856C685.973 64.856 686.245 64.888 686.517 64.952C686.789 65.008 687.033 65.12 687.249 65.288C687.465 65.456 687.641 65.696 687.777 66.008C687.913 66.312 687.981 66.716 687.981 67.22C687.981 67.484 687.957 67.776 687.909 68.096H684.057C684.057 68.448 684.093 68.76 684.165 69.032C684.237 69.304 684.349 69.536 684.501 69.728C684.653 69.912 684.849 70.056 685.089 70.16C685.337 70.256 685.637 70.304 685.989 70.304C686.261 70.304 686.533 70.256 686.805 70.16C687.077 70.064 687.281 69.952 687.417 69.824L687.777 70.52ZM685.713 65.696C685.241 65.696 684.861 65.82 684.573 66.068C684.293 66.316 684.125 66.74 684.069 67.34H687.045C687.045 66.732 686.929 66.308 686.697 66.068C686.465 65.82 686.137 65.696 685.713 65.696ZM693.454 70.604C693.214 70.78 692.93 70.912 692.602 71C692.274 71.096 691.93 71.144 691.57 71.144C691.106 71.144 690.714 71.072 690.394 70.928C690.074 70.776 689.81 70.564 689.602 70.292C689.402 70.012 689.254 69.68 689.158 69.296C689.07 68.904 689.026 68.472 689.026 68C689.026 66.984 689.25 66.208 689.698 65.672C690.146 65.128 690.79 64.856 691.63 64.856C692.014 64.856 692.338 64.888 692.602 64.952C692.874 65.008 693.118 65.092 693.334 65.204L693.058 66.032C692.874 65.928 692.67 65.848 692.446 65.792C692.222 65.728 691.982 65.696 691.726 65.696C690.59 65.696 690.021 66.464 690.021 68C690.021 68.304 690.05 68.596 690.106 68.876C690.17 69.148 690.27 69.392 690.406 69.608C690.55 69.816 690.734 69.984 690.958 70.112C691.19 70.24 691.474 70.304 691.81 70.304C692.098 70.304 692.354 70.26 692.578 70.172C692.81 70.084 692.998 69.984 693.142 69.872L693.454 70.604ZM697.764 68.516L696.84 68.66L695.256 71H694.092L695.532 68.948L696.012 68.504C695.596 68.44 695.24 68.272 694.944 68C694.656 67.728 694.512 67.36 694.512 66.896C694.512 66.536 694.572 66.228 694.692 65.972C694.82 65.716 695 65.504 695.232 65.336C695.464 65.168 695.74 65.048 696.06 64.976C696.38 64.896 696.74 64.856 697.14 64.856C697.436 64.856 697.712 64.876 697.968 64.916C698.224 64.956 698.476 65 698.724 65.048V71H697.764V68.516ZM697.764 65.816C697.66 65.776 697.544 65.748 697.416 65.732C697.288 65.708 697.176 65.696 697.08 65.696C696.568 65.696 696.176 65.788 695.904 65.972C695.64 66.156 695.508 66.448 695.508 66.848C695.508 67.208 695.648 67.488 695.928 67.688C696.216 67.88 696.592 67.976 697.056 67.976C697.064 67.976 697.076 67.976 697.092 67.976C697.108 67.976 697.14 67.976 697.188 67.976C697.236 67.976 697.304 67.976 697.392 67.976C697.48 67.968 697.604 67.96 697.764 67.952V65.816ZM705.859 72.524H705.211L705.031 71H700.471V65H701.431V70.16H704.035V65H704.995V70.16H705.859V72.524ZM706.949 65.444C707.253 65.26 707.605 65.124 708.005 65.036C708.413 64.948 708.837 64.904 709.277 64.904C709.693 64.904 710.025 64.96 710.273 65.072C710.529 65.184 710.721 65.332 710.849 65.516C710.985 65.692 711.073 65.888 711.113 66.104C711.161 66.32 711.185 66.536 711.185 66.752C711.185 67.232 711.173 67.7 711.149 68.156C711.125 68.612 711.113 69.044 711.113 69.452C711.113 69.748 711.125 70.028 711.149 70.292C711.173 70.556 711.217 70.8 711.281 71.024H710.573L710.321 70.184H710.261C710.189 70.296 710.097 70.408 709.985 70.52C709.881 70.624 709.753 70.72 709.601 70.808C709.449 70.888 709.273 70.956 709.073 71.012C708.873 71.068 708.645 71.096 708.389 71.096C708.133 71.096 707.893 71.056 707.669 70.976C707.453 70.896 707.265 70.784 707.105 70.64C706.945 70.488 706.817 70.308 706.721 70.1C706.633 69.892 706.589 69.656 706.589 69.392C706.589 69.04 706.661 68.748 706.805 68.516C706.949 68.276 707.149 68.088 707.405 67.952C707.669 67.808 707.981 67.708 708.341 67.652C708.709 67.588 709.113 67.556 709.553 67.556C709.665 67.556 709.773 67.556 709.877 67.556C709.989 67.556 710.101 67.564 710.213 67.58C710.237 67.34 710.249 67.124 710.249 66.932C710.249 66.492 710.161 66.184 709.985 66.008C709.809 65.832 709.489 65.744 709.025 65.744C708.889 65.744 708.741 65.756 708.581 65.78C708.429 65.796 708.269 65.824 708.101 65.864C707.941 65.896 707.785 65.94 707.633 65.996C707.489 66.044 707.361 66.1 707.249 66.164L706.949 65.444ZM708.653 70.256C708.877 70.256 709.077 70.228 709.253 70.172C709.429 70.108 709.581 70.032 709.709 69.944C709.837 69.848 709.941 69.744 710.021 69.632C710.109 69.52 710.173 69.412 710.213 69.308V68.312C710.101 68.304 709.985 68.3 709.865 68.3C709.753 68.292 709.641 68.288 709.529 68.288C709.281 68.288 709.037 68.304 708.797 68.336C708.565 68.36 708.357 68.412 708.173 68.492C707.997 68.564 707.853 68.668 707.741 68.804C707.637 68.932 707.585 69.096 707.585 69.296C707.585 69.576 707.685 69.808 707.885 69.992C708.085 70.168 708.341 70.256 708.653 70.256Z" fill="#979A9D"/>
  <path d="M165.296 71.112H166.976V65.304L167.096 64.596L166.616 65.16L165.296 66.108L164.84 65.496L167.48 63.456H167.912V71.112H169.556V72H165.296V71.112ZM179.618 68.436L179.69 67.296H179.63L179.198 68.22L177.746 70.572H177.41L175.898 68.22L175.502 67.296H175.454L175.55 68.424V72H174.662V66H175.61L177.29 68.688L177.638 69.384H177.662L178.022 68.664L179.594 66H180.554V72H179.618V68.436ZM186.777 71.52C186.537 71.712 186.233 71.864 185.865 71.976C185.505 72.088 185.121 72.144 184.713 72.144C184.257 72.144 183.861 72.072 183.525 71.928C183.189 71.776 182.913 71.564 182.697 71.292C182.481 71.012 182.321 70.68 182.217 70.296C182.113 69.912 182.061 69.48 182.061 69C182.061 67.976 182.289 67.196 182.745 66.66C183.201 66.124 183.853 65.856 184.701 65.856C184.973 65.856 185.245 65.888 185.517 65.952C185.789 66.008 186.033 66.12 186.249 66.288C186.465 66.456 186.641 66.696 186.777 67.008C186.913 67.312 186.981 67.716 186.981 68.22C186.981 68.484 186.957 68.776 186.909 69.096H183.057C183.057 69.448 183.093 69.76 183.165 70.032C183.237 70.304 183.349 70.536 183.501 70.728C183.653 70.912 183.849 71.056 184.089 71.16C184.337 71.256 184.637 71.304 184.989 71.304C185.261 71.304 185.533 71.256 185.805 71.16C186.077 71.064 186.281 70.952 186.417 70.824L186.777 71.52ZM184.713 66.696C184.241 66.696 183.861 66.82 183.573 67.068C183.293 67.316 183.125 67.74 183.069 68.34H186.045C186.045 67.732 185.929 67.308 185.697 67.068C185.465 66.82 185.137 66.696 184.713 66.696ZM192.454 71.604C192.214 71.78 191.93 71.912 191.602 72C191.274 72.096 190.93 72.144 190.57 72.144C190.106 72.144 189.714 72.072 189.394 71.928C189.074 71.776 188.81 71.564 188.602 71.292C188.402 71.012 188.254 70.68 188.158 70.296C188.07 69.904 188.026 69.472 188.026 69C188.026 67.984 188.25 67.208 188.698 66.672C189.146 66.128 189.79 65.856 190.63 65.856C191.014 65.856 191.338 65.888 191.602 65.952C191.874 66.008 192.118 66.092 192.334 66.204L192.058 67.032C191.874 66.928 191.67 66.848 191.446 66.792C191.222 66.728 190.982 66.696 190.726 66.696C189.59 66.696 189.021 67.464 189.021 69C189.021 69.304 189.05 69.596 189.106 69.876C189.17 70.148 189.27 70.392 189.406 70.608C189.55 70.816 189.734 70.984 189.958 71.112C190.19 71.24 190.474 71.304 190.81 71.304C191.098 71.304 191.354 71.26 191.578 71.172C191.81 71.084 191.998 70.984 192.142 70.872L192.454 71.604ZM196.764 69.516L195.84 69.66L194.256 72H193.092L194.532 69.948L195.012 69.504C194.596 69.44 194.24 69.272 193.944 69C193.656 68.728 193.512 68.36 193.512 67.896C193.512 67.536 193.572 67.228 193.692 66.972C193.82 66.716 194 66.504 194.232 66.336C194.464 66.168 194.74 66.048 195.06 65.976C195.38 65.896 195.74 65.856 196.14 65.856C196.436 65.856 196.712 65.876 196.968 65.916C197.224 65.956 197.476 66 197.724 66.048V72H196.764V69.516ZM196.764 66.816C196.66 66.776 196.544 66.748 196.416 66.732C196.288 66.708 196.176 66.696 196.08 66.696C195.568 66.696 195.176 66.788 194.904 66.972C194.64 67.156 194.508 67.448 194.508 67.848C194.508 68.208 194.648 68.488 194.928 68.688C195.216 68.88 195.592 68.976 196.056 68.976C196.064 68.976 196.076 68.976 196.092 68.976C196.108 68.976 196.14 68.976 196.188 68.976C196.236 68.976 196.304 68.976 196.392 68.976C196.48 68.968 196.604 68.96 196.764 68.952V66.816ZM204.859 73.524H204.211L204.031 72H199.471V66H200.431V71.16H203.035V66H203.995V71.16H204.859V73.524Z" fill="#979A9D"/>
  <path d="M356.352 65.508C356.352 65.932 356.272 66.368 356.112 66.816C355.96 67.256 355.756 67.7 355.5 68.148C355.252 68.596 354.972 69.036 354.66 69.468C354.348 69.892 354.036 70.296 353.724 70.68L353.136 71.196V71.244L353.904 71.112H356.52V72H351.744V71.652C351.92 71.468 352.132 71.24 352.38 70.968C352.628 70.696 352.884 70.396 353.148 70.068C353.42 69.732 353.684 69.38 353.94 69.012C354.204 68.636 354.44 68.256 354.648 67.872C354.864 67.488 355.036 67.108 355.164 66.732C355.292 66.356 355.356 66 355.356 65.664C355.356 65.272 355.244 64.948 355.02 64.692C354.796 64.428 354.456 64.296 354 64.296C353.696 64.296 353.4 64.36 353.112 64.488C352.824 64.608 352.576 64.748 352.368 64.908L351.972 64.224C352.252 63.984 352.584 63.796 352.968 63.66C353.352 63.524 353.764 63.456 354.204 63.456C354.548 63.456 354.852 63.508 355.116 63.612C355.38 63.708 355.604 63.848 355.788 64.032C355.972 64.216 356.112 64.436 356.208 64.692C356.304 64.94 356.352 65.212 356.352 65.508ZM366.618 68.436L366.69 67.296H366.63L366.198 68.22L364.746 70.572H364.41L362.898 68.22L362.502 67.296H362.454L362.55 68.424V72H361.662V66H362.61L364.29 68.688L364.638 69.384H364.662L365.022 68.664L366.594 66H367.554V72H366.618V68.436ZM373.777 71.52C373.537 71.712 373.233 71.864 372.865 71.976C372.505 72.088 372.121 72.144 371.713 72.144C371.257 72.144 370.861 72.072 370.525 71.928C370.189 71.776 369.913 71.564 369.697 71.292C369.481 71.012 369.321 70.68 369.217 70.296C369.113 69.912 369.061 69.48 369.061 69C369.061 67.976 369.289 67.196 369.745 66.66C370.201 66.124 370.853 65.856 371.701 65.856C371.973 65.856 372.245 65.888 372.517 65.952C372.789 66.008 373.033 66.12 373.249 66.288C373.465 66.456 373.641 66.696 373.777 67.008C373.913 67.312 373.981 67.716 373.981 68.22C373.981 68.484 373.957 68.776 373.909 69.096H370.057C370.057 69.448 370.093 69.76 370.165 70.032C370.237 70.304 370.349 70.536 370.501 70.728C370.653 70.912 370.849 71.056 371.089 71.16C371.337 71.256 371.637 71.304 371.989 71.304C372.261 71.304 372.533 71.256 372.805 71.16C373.077 71.064 373.281 70.952 373.417 70.824L373.777 71.52ZM371.713 66.696C371.241 66.696 370.861 66.82 370.573 67.068C370.293 67.316 370.125 67.74 370.069 68.34H373.045C373.045 67.732 372.929 67.308 372.697 67.068C372.465 66.82 372.137 66.696 371.713 66.696ZM379.454 71.604C379.214 71.78 378.93 71.912 378.602 72C378.274 72.096 377.93 72.144 377.57 72.144C377.106 72.144 376.714 72.072 376.394 71.928C376.074 71.776 375.81 71.564 375.602 71.292C375.402 71.012 375.254 70.68 375.158 70.296C375.07 69.904 375.026 69.472 375.026 69C375.026 67.984 375.25 67.208 375.698 66.672C376.146 66.128 376.79 65.856 377.63 65.856C378.014 65.856 378.338 65.888 378.602 65.952C378.874 66.008 379.118 66.092 379.334 66.204L379.058 67.032C378.874 66.928 378.67 66.848 378.446 66.792C378.222 66.728 377.982 66.696 377.726 66.696C376.59 66.696 376.021 67.464 376.021 69C376.021 69.304 376.05 69.596 376.106 69.876C376.17 70.148 376.27 70.392 376.406 70.608C376.55 70.816 376.734 70.984 376.958 71.112C377.19 71.24 377.474 71.304 377.81 71.304C378.098 71.304 378.354 71.26 378.578 71.172C378.81 71.084 378.998 70.984 379.142 70.872L379.454 71.604ZM383.764 69.516L382.84 69.66L381.256 72H380.092L381.532 69.948L382.012 69.504C381.596 69.44 381.24 69.272 380.944 69C380.656 68.728 380.512 68.36 380.512 67.896C380.512 67.536 380.572 67.228 380.692 66.972C380.82 66.716 381 66.504 381.232 66.336C381.464 66.168 381.74 66.048 382.06 65.976C382.38 65.896 382.74 65.856 383.14 65.856C383.436 65.856 383.712 65.876 383.968 65.916C384.224 65.956 384.476 66 384.724 66.048V72H383.764V69.516ZM383.764 66.816C383.66 66.776 383.544 66.748 383.416 66.732C383.288 66.708 383.176 66.696 383.08 66.696C382.568 66.696 382.176 66.788 381.904 66.972C381.64 67.156 381.508 67.448 381.508 67.848C381.508 68.208 381.648 68.488 381.928 68.688C382.216 68.88 382.592 68.976 383.056 68.976C383.064 68.976 383.076 68.976 383.092 68.976C383.108 68.976 383.14 68.976 383.188 68.976C383.236 68.976 383.304 68.976 383.392 68.976C383.48 68.968 383.604 68.96 383.764 68.952V66.816ZM391.859 73.524H391.211L391.031 72H386.471V66H387.431V71.16H390.035V66H390.995V71.16H391.859V73.524ZM392.949 66.444C393.253 66.26 393.605 66.124 394.005 66.036C394.413 65.948 394.837 65.904 395.277 65.904C395.693 65.904 396.025 65.96 396.273 66.072C396.529 66.184 396.721 66.332 396.849 66.516C396.985 66.692 397.073 66.888 397.113 67.104C397.161 67.32 397.185 67.536 397.185 67.752C397.185 68.232 397.173 68.7 397.149 69.156C397.125 69.612 397.113 70.044 397.113 70.452C397.113 70.748 397.125 71.028 397.149 71.292C397.173 71.556 397.217 71.8 397.281 72.024H396.573L396.321 71.184H396.261C396.189 71.296 396.097 71.408 395.985 71.52C395.881 71.624 395.753 71.72 395.601 71.808C395.449 71.888 395.273 71.956 395.073 72.012C394.873 72.068 394.645 72.096 394.389 72.096C394.133 72.096 393.893 72.056 393.669 71.976C393.453 71.896 393.265 71.784 393.105 71.64C392.945 71.488 392.817 71.308 392.721 71.1C392.633 70.892 392.589 70.656 392.589 70.392C392.589 70.04 392.661 69.748 392.805 69.516C392.949 69.276 393.149 69.088 393.405 68.952C393.669 68.808 393.981 68.708 394.341 68.652C394.709 68.588 395.113 68.556 395.553 68.556C395.665 68.556 395.773 68.556 395.877 68.556C395.989 68.556 396.101 68.564 396.213 68.58C396.237 68.34 396.249 68.124 396.249 67.932C396.249 67.492 396.161 67.184 395.985 67.008C395.809 66.832 395.489 66.744 395.025 66.744C394.889 66.744 394.741 66.756 394.581 66.78C394.429 66.796 394.269 66.824 394.101 66.864C393.941 66.896 393.785 66.94 393.633 66.996C393.489 67.044 393.361 67.1 393.249 67.164L392.949 66.444ZM394.653 71.256C394.877 71.256 395.077 71.228 395.253 71.172C395.429 71.108 395.581 71.032 395.709 70.944C395.837 70.848 395.941 70.744 396.021 70.632C396.109 70.52 396.173 70.412 396.213 70.308V69.312C396.101 69.304 395.985 69.3 395.865 69.3C395.753 69.292 395.641 69.288 395.529 69.288C395.281 69.288 395.037 69.304 394.797 69.336C394.565 69.36 394.357 69.412 394.173 69.492C393.997 69.564 393.853 69.668 393.741 69.804C393.637 69.932 393.585 70.096 393.585 70.296C393.585 70.576 393.685 70.808 393.885 70.992C394.085 71.168 394.341 71.256 394.653 71.256Z" fill="#979A9D"/>
  <path d="M45 88C46.1 88 47 87.1 47 86C47 84.9 46.1 84 45 84C43.9 84 43 84.9 43 86C43 87.1 43.9 88 45 88ZM46 98H40.8L43.9 90.4C43.9 90.3 44 90.2 44 90C44 89.4 43.6 89 43 89H38C37.3 89 37.1 89.5 37.1 89.5L35.1 93.5C35.1 93.5 35 93.6 35 94C35 94.6 35.4 95 36 95C36.4 95 36.7 94.8 36.8 94.5L38.6 91H41.5L35.1 106.6C35.1 106.6 35 106.7 35 107C35 107.6 35.4 108 36 108C36.4 108 36.8 107.7 36.9 107.4L39.9 100H44.7L44 103.8C44 103.9 44 103.9 44 104C44 104.6 44.4 105 45 105C45.9 105 46 104.2 46 104.2L47 99.2C47 99.1 47 99.1 47 99C47 98.4 46.6 98 46 98ZM48 93H45C44.4 93 44 93.4 44 94C44 94.6 44.4 95 45 95H48C48.6 95 49 94.6 49 94C49 93.4 48.6 93 48 93Z" fill="#30353B"/>
  <defs>
  <linearGradient id="paint0_linear_520_24546" x1="42" y1="50" x2="16" y2="50" gradientUnits="userSpaceOnUse">
  <stop stop-color="#FA4616" stop-opacity="0.2"/>
  <stop offset="0.731326" stop-color="#FA4616" stop-opacity="0.1"/>
  <stop offset="1" stop-color="#FA4616" stop-opacity="0"/>
  </linearGradient>
  </defs>
  </svg>
  